<?xml version="1.0" standalone="no"?>
<!DOCTYPE svg PUBLIC "-//W3C//DTD SVG 1.1//EN" "http://www.w3.org/Graphics/SVG/1.1/DTD/svg11.dtd" >
<svg xmlns="http://www.w3.org/2000/svg">
<metadata></metadata>
<defs>
<font id="perpetua_stdregular" horiz-adv-x="937" >
<font-face units-per-em="2048" ascent="1286" descent="-762" />
<missing-glyph horiz-adv-x="460" />
<glyph unicode="&#xfb01;" d="M27 0v35q70 0 94 20t24 86v529h-100v35q56 24 100 49q9 253 107.5 392.5t267.5 139.5q137 0 254 -57l-76 -189l-30 11q11 92 -37.5 145t-124.5 53q-111 0 -166 -85t-55 -222v-219h286q107 0 172 22h41v-630q0 -45 25 -62.5t90 -17.5v-35h-369v35q58 0 86.5 19t28.5 65 v438q0 76 -15 94.5t-79 18.5h-266v-539q0 -55 26 -75.5t95 -20.5v-35h-379z" />
<glyph unicode="&#xfb02;" d="M31 0v35q61 0 85.5 18t24.5 72v545h-100v35q63 24 100 49v157q0 169 90.5 272t239.5 103q86 0 188 -51q37 12 93 51h32v-1139q0 -65 20.5 -88.5t94.5 -23.5v-35h-373v35q43 0 62 3t34.5 18t19 43t3.5 83v842q0 225 -182 225q-83 0 -132.5 -56t-49.5 -151v-319h245v-53 h-245v-535q0 -56 26 -78t90 -22v-35h-366z" />
<glyph unicode="&#xfb03;" horiz-adv-x="1472" d="M29 0v35h41q35 0 55 7.5t28.5 28t10.5 40t2 61.5v492h-103v32q19 11 68 31q30 24 35 29v63q0 138 11.5 199.5t37.5 109.5q88 160 268 160q119 0 201 -59l-70 -189l-32 11q5 54 -7.5 93.5t-31 57.5t-45.5 28.5t-39 11.5t-23 1q-27 0 -48 -7.5t-34 -17.5t-22.5 -28.5 t-14 -32.5t-7 -37t-3 -35t-0.5 -34v-328h361q9 149 27.5 240.5t70.5 171.5q32 49 75.5 82t87.5 47t75 19t59 5q112 0 233 -59l-71 -189l-31 11q0 58 -7 84t-34 59q-42 53 -121 53q-223 0 -223 -332v-192h287q106 0 180 16h35v-563v-32t0.5 -26.5t2 -23t4.5 -17t7 -15.5 t11 -10.5t15 -8.5t20 -4t26 -3.5t33 -0.5v-35h-375v35q41 0 64.5 6.5t34 26.5t13 40.5t2.5 65.5v381q0 31 -1 45t-5 31t-13.5 23.5t-26.5 11t-44 4.5h-270v-496q0 -51 3.5 -76.5t18 -41t34.5 -18.5t63 -3v-35h-379v35q36 0 58 5.5t35 12.5t18.5 27.5t6.5 36.5t1 53v500h-361 v-551q0 -13 0.5 -20.5t5 -21t12.5 -21.5t25 -14.5t41 -6.5h53v-35h-415z" />
<glyph unicode="&#xfb04;" horiz-adv-x="1472" d="M31 0v35h41q65 0 78.5 25.5t13.5 113.5v492h-105v36q39 11 58 21t47 37v67q0 245 82 349q89 112 235 112q111 0 201 -61l-70 -189l-34 15q4 20 4 55q0 66 -47 100.5t-103 34.5q-127 0 -127 -190v-330h361v186q0 75 17 136.5t43 99.5t61.5 67t66 43t64 22t49 9.5t26.5 1.5 q90 0 191 -53q28 12 92 51h33v-1102q0 -35 0.5 -51t5 -39t14 -33t27.5 -18t45 -8h26v-35h-374v35q22 0 38 1t28.5 5.5t20 7t13.5 13.5t8.5 17.5t4 25.5t1.5 30.5v40.5v821q0 24 -0.5 41t-4.5 45t-10.5 48t-19.5 43.5t-31.5 38t-47 24.5t-64.5 10q-37 0 -66.5 -9.5 t-48.5 -23.5t-32 -38t-20 -44t-10.5 -51.5t-4 -50t-0.5 -49.5v-258h246v-55h-246v-498q0 -33 1.5 -51.5t7.5 -37t19 -27t35 -14t56 -5.5v-35h-379v35q30 0 50.5 3t33.5 12.5t20 17.5t10.5 28.5t4 34.5t0.5 45v492h-361v-490q3 -98 15 -120.5t71 -22.5h51v-35h-411z" />
<glyph horiz-adv-x="2048" />
<glyph horiz-adv-x="2048" />
<glyph unicode="&#xd;" horiz-adv-x="2048" />
<glyph unicode=" "  horiz-adv-x="460" />
<glyph unicode="&#x09;" horiz-adv-x="460" />
<glyph unicode="&#xa0;" horiz-adv-x="460" />
<glyph unicode="!" horiz-adv-x="598" d="M201 74q0 40 29 68t69 28t68 -28t28 -68t-28.5 -69.5t-67.5 -29.5q-40 0 -69 29.5t-29 69.5zM225 1135q0 46 22.5 75t57.5 29q37 0 60.5 -28.5t23.5 -75.5q0 -22 -5 -70t-5 -49l-62 -733h-32l-54 733q-6 93 -6 119z" />
<glyph unicode="&#x22;" horiz-adv-x="835" d="M166 1171q0 41 24 68t62 27t62 -27t24 -68q0 -46 -12 -112l-56 -324h-37l-55 324q-12 66 -12 112zM496 1171q0 41 24 68t62 27t62 -27t24 -68t-13 -112l-55 -324h-37l-55 324q-12 66 -12 112z" />
<glyph unicode="#" horiz-adv-x="1368" d="M96 369v88h228l88 405h-316v88h334l88 416h88l-88 -416h457l88 416h88l-88 -416h209v-88h-228l-88 -405h316v-88h-334l-88 -416h-88l88 416h-457l-88 -416h-88l88 416h-209zM412 457h456l88 405h-456z" />
<glyph unicode="$" d="M178 72l45 229h35q-11 -124 29.5 -189.5t142.5 -80.5v444q-122 78 -172.5 148t-50.5 161q0 98 58 160.5t165 81.5v76h35v-76q121 -3 227 -72l-30 -209h-35q9 101 -34 166.5t-128 77.5v-371q162 -111 221 -186t59 -164q0 -29 -8.5 -62.5t-29 -71.5t-51.5 -68.5t-80.5 -52 t-110.5 -23.5v-211h-35v211q-76 1 -134.5 20.5t-117.5 61.5zM301 838q0 -60 28.5 -105t100.5 -90v346q-60 -9 -94.5 -48.5t-34.5 -102.5zM465 31q45 1 79.5 22.5t52.5 52.5t27 61t9 56q0 127 -168 226v-418z" />
<glyph unicode="%" horiz-adv-x="1536" d="M59 872q0 142 71.5 236t180.5 94q108 0 180 -94t72 -236t-72 -235.5t-180 -93.5q-109 0 -180.5 93.5t-71.5 235.5zM168 864q0 -126 39.5 -197t103.5 -71q65 0 104.5 72t39.5 204t-39.5 204.5t-104.5 72.5q-67 0 -105 -73t-38 -212zM307 0l852 1202h70l-852 -1202h-70z M973 319q0 142 71.5 236t180.5 94q108 0 180 -94t72 -236t-72 -235.5t-180 -93.5q-109 0 -180.5 93.5t-71.5 235.5zM1081 311q0 -126 39.5 -197t104.5 -71t104 72t39 204t-39 204.5t-104 72.5q-67 0 -105.5 -73t-38.5 -212z" />
<glyph unicode="&#x26;" horiz-adv-x="1259" d="M86 262q0 90 67 176t189 154q-131 122 -131 258q0 117 78.5 192.5t199.5 75.5q98 0 167 -62.5t69 -150.5q0 -148 -211 -260q77 -66 140 -135t161 -188q86 148 86 245q0 54 -18.5 76t-67.5 25v34h334v-34q-56 0 -77.5 -6.5t-47.5 -32.5q-33 -33 -56.5 -87t-53 -127.5 t-68.5 -133.5q48 -60 72.5 -89.5t59.5 -67.5t60.5 -53.5t46.5 -15.5q36 0 80 41l27 -22q-34 -49 -83 -76t-103 -27q-42 0 -82.5 20t-62 40.5t-58 61.5t-49.5 54q-74 -91 -155.5 -133.5t-184.5 -42.5q-137 0 -232.5 85t-95.5 206zM227 334q0 -103 84 -188t187 -85 q63 0 116 29t113 96q-80 99 -178.5 204.5t-175.5 170.5q-65 -35 -105.5 -98t-40.5 -129zM311 915q0 -55 48.5 -121t123.5 -124q135 78 135 221q0 74 -43 121t-112 47q-66 0 -109 -40.5t-43 -103.5z" />
<glyph unicode="'" horiz-adv-x="368" d="M98 1171q0 41 24 68t62 27t62 -27t24 -68q0 -46 -12 -112l-55 -324h-37l-55 324q-13 71 -13 112z" />
<glyph unicode="(" horiz-adv-x="641" d="M113 356q0 205 129.5 435t314.5 383l21 -27q-166 -179 -240 -362t-74 -418q0 -261 75.5 -443.5t238.5 -353.5l-21 -27q-209 184 -326.5 400t-117.5 413z" />
<glyph unicode=")" horiz-adv-x="641" d="M63 -430q166 179 240 362t74 418q0 256 -73 442.5t-241 354.5l23 27q208 -184 325 -400t117 -414q0 -147 -71 -313t-169 -293t-202 -211z" />
<glyph unicode="*" d="M106 592q0 44 38.5 72t87 38t108 26.5t88.5 37.5q-36 22 -97 40.5t-106 29.5t-79.5 37.5t-34.5 68.5q0 28 16 45t43 17q39 0 79.5 -27.5t69.5 -61.5t65 -67.5t65 -42.5q0 67 -25 143t-25 123q0 42 20.5 71t51.5 29q33 0 52.5 -27.5t19.5 -74.5q0 -39 -27 -121t-27 -143 q30 10 59.5 33.5t53 50t47.5 52t53 42t60 16.5q29 0 50.5 -17t21.5 -40q0 -43 -33 -69t-76.5 -36t-108 -29t-106.5 -42q67 -33 129 -49t96.5 -25.5t59.5 -34.5q34 -34 34 -69q0 -25 -18 -42.5t-43 -17.5q-43 0 -90 34.5t-100.5 87t-88.5 73.5q0 -57 25 -150.5t25 -121.5 q0 -38 -22.5 -66.5t-51.5 -28.5t-49.5 26.5t-20.5 63.5q0 41 27 127t27 150q-39 -20 -78 -55.5t-63.5 -64t-59 -50t-70.5 -21.5q-32 0 -52 17t-20 43z" />
<glyph unicode="+" horiz-adv-x="1366" d="M145 610v88h494v494h88v-494h494v-88h-494v-493h-88v493h-494z" />
<glyph unicode="," horiz-adv-x="598" d="M180 47q0 39 29.5 67.5t69.5 28.5q67 0 109 -54.5t42 -141.5q0 -106 -70 -189.5t-180 -109.5v35q80 41 112 92t32 137q0 24 -6.5 30.5t-30.5 6.5q-44 0 -75.5 28.5t-31.5 69.5z" />
<glyph unicode="-" horiz-adv-x="641" d="M119 322v77h401v-77h-401z" />
<glyph unicode="." horiz-adv-x="598" d="M201 47q0 40 29 68t69 28t68 -28t28 -68t-28 -69t-68 -29t-69 29t-29 69z" />
<glyph unicode="/" horiz-adv-x="1024" d="M166 -25l598 1244h94l-598 -1244h-94z" />
<glyph unicode="0" d="M61 594q0 146 35.5 265t94.5 192t130.5 112t147.5 39q75 0 146 -38.5t129.5 -112t94 -193.5t35.5 -268q0 -124 -24.5 -227.5t-65.5 -173.5t-94 -119t-109 -71t-112 -22q-58 0 -114.5 22.5t-110 72t-94 120t-65 174.5t-24.5 228zM217 590q0 -167 26.5 -290.5t84 -196 t141.5 -72.5q117 0 183.5 142t66.5 417q0 86 -7 162.5t-25 150.5t-45.5 127.5t-72 86t-100.5 32.5q-68 0 -119 -47t-79 -128.5t-41 -177t-13 -206.5z" />
<glyph unicode="1" d="M236 965v34q224 118 276 199h35v-1038q0 -81 23 -105t98 -24v-31h-377v31q74 0 97.5 24t23.5 105v805q0 41 -17 41q-4 0 -27 -9.5t-59.5 -19.5t-72.5 -12z" />
<glyph unicode="2" d="M119 0v41q200 206 311.5 351t151 240t39.5 187q0 126 -57.5 198.5t-157.5 72.5q-83 0 -144.5 -53t-71.5 -160h-34q1 33 12.5 74.5t37.5 86t61 81t87.5 60t112.5 23.5q122 0 209.5 -92.5t87.5 -235.5q0 -161 -127.5 -342t-423.5 -448h578v-84h-672z" />
<glyph unicode="3" d="M133 106l25 25q64 -52 117.5 -74t113.5 -22q107 0 183.5 66.5t76.5 183.5q0 36 -9 76t-31 83.5t-53.5 78t-81 57t-109.5 22.5q-20 0 -119 -6v35q360 62 360 297q0 87 -57 146t-143 59q-61 0 -111 -32.5t-78 -90.5l-33 14q29 82 103.5 130t171.5 48q122 0 203 -75t81 -187 q0 -30 -8 -61.5t-28 -70.5t-64 -76t-108 -64v-4q123 -32 191.5 -118t68.5 -206q0 -161 -103 -262t-266 -101q-90 0 -156 29t-137 100z" />
<glyph unicode="4" d="M12 387v35l572 780h34v-721h289v-94h-289v-403h-122v403h-484zM127 481l369 2v498h-4z" />
<glyph unicode="5" d="M94 145l31 19q95 -117 227 -117q113 0 189.5 75t76.5 185q0 54 -21.5 101.5t-65 85t-118 54t-169.5 3.5l18 623h498v-111h-441l-12 -416q118 17 210.5 -6.5t145.5 -74.5t80 -112.5t27 -127.5q0 -151 -102 -250t-256 -99q-195 0 -318 168z" />
<glyph unicode="6" d="M88 438q0 152 57 287.5t156.5 235t239 164t301.5 79.5v-35q-262 -47 -418.5 -214.5t-179.5 -424.5q138 129 288 129q140 0 230 -93.5t90 -239.5q0 -148 -105.5 -248.5t-261.5 -100.5q-172 0 -284.5 130t-112.5 331zM244 469q-3 -208 71.5 -323t190.5 -115 q90 0 147.5 72.5t57.5 185.5q0 127 -65.5 203.5t-174.5 76.5q-118 0 -227 -100z" />
<glyph unicode="7" d="M68 911l63 301h35q10 -24 20 -30q13 -8 45 -8h648v-41l-404 -1149h-147l454 1075h-514q-55 0 -84.5 -27t-81.5 -121h-34z" />
<glyph unicode="8" d="M119 264q0 98 60.5 174t195.5 150q-108 57 -165.5 140.5t-57.5 182.5q0 129 87.5 210t227.5 81q131 0 218 -76.5t87 -191.5q0 -169 -203 -281q232 -161 232 -360q0 -134 -100 -225t-246 -91q-148 0 -242 80.5t-94 206.5zM233 289q0 -108 67.5 -181t168.5 -73 q91 0 151 57.5t60 145.5q0 173 -268 315q-179 -84 -179 -264zM262 977q0 -77 62 -145.5t208 -153.5q134 70 134 231q0 110 -59 179t-154 69q-82 0 -136.5 -51.5t-54.5 -128.5z" />
<glyph unicode="9" d="M88 856q0 148 106 247t263 99q172 0 283.5 -129.5t111.5 -329.5q0 -207 -102.5 -376.5t-273 -268.5t-378.5 -118v34q252 34 416.5 209t183.5 430q-138 -129 -290 -129q-138 0 -229 94t-91 238zM229 893q0 -127 66.5 -204t175.5 -77q118 0 227 103q1 214 -74 324t-188 110 q-91 0 -149 -72t-58 -184z" />
<glyph unicode=":" horiz-adv-x="598" d="M201 47q0 40 29 68t69 28t68 -28t28 -68t-28 -69t-68 -29t-69 29t-29 69zM201 575q0 40 29 68.5t69 28.5t68 -28.5t28 -68.5t-28 -69t-68 -29t-69 29t-29 69z" />
<glyph unicode=";" horiz-adv-x="598" d="M180 47q0 39 29.5 67.5t69.5 28.5q67 0 109 -54.5t42 -141.5q0 -106 -70 -189.5t-180 -109.5v35q79 40 111.5 91.5t32.5 137.5q0 24 -6.5 30.5t-30.5 6.5q-44 0 -75.5 28.5t-31.5 69.5zM201 575q0 40 29 68.5t69 28.5t68 -28.5t28 -68.5t-28 -69t-68 -29t-69 29t-29 69z " />
<glyph unicode="&#x3c;" horiz-adv-x="1366" d="M145 618v78l1076 453v-96l-959 -396l959 -395v-96z" />
<glyph unicode="=" horiz-adv-x="1366" d="M145 385v88h1076v-88h-1076zM145 848v88h1076v-88h-1076z" />
<glyph unicode="&#x3e;" horiz-adv-x="1366" d="M145 166v96l959 395l-959 396v96l1076 -453v-78z" />
<glyph unicode="?" horiz-adv-x="641" d="M113 975v47q82 121 209 121q109 0 183.5 -93.5t74.5 -228.5q0 -63 -16 -112.5t-42 -80t-57 -56t-62.5 -49.5t-57.5 -51t-42 -69t-16 -96v-63h-39v227q0 50 20.5 93t51 71.5t66.5 59t66.5 56t51 63t20.5 79.5q0 72 -59 116t-156 44q-60 0 -100 -16t-96 -62zM186 74 q0 39 29.5 67.5t69.5 28.5t68 -28t28 -68t-28.5 -69.5t-67.5 -29.5q-40 0 -69.5 29.5t-29.5 69.5z" />
<glyph unicode="@" horiz-adv-x="1886" d="M106 451q0 202 73.5 381.5t199 308t301.5 203.5t373 75q319 0 511.5 -187.5t192.5 -506.5q0 -147 -47.5 -281t-123 -226.5t-170 -147t-187.5 -54.5q-166 0 -166 142q0 20 24 149l-4 4q-113 -148 -201.5 -216t-174.5 -68q-88 0 -141.5 62.5t-53.5 166.5q0 123 59 253.5 t144 226.5t180.5 158t167.5 62q74 0 114 -31.5t60 -107.5h4l23 115l135 18l-203 -704q-23 -81 2 -121.5t80 -40.5q65 0 139 48.5t139.5 131t108.5 207t43 260.5q0 286 -181 461.5t-474 175.5q-163 0 -305 -56t-243.5 -151.5t-174.5 -220t-108.5 -263.5t-35.5 -280 q0 -150 52 -289.5t149 -252t251 -180.5t341 -68q271 0 493 153t314 404h55q-98 -277 -333.5 -443.5t-530.5 -166.5q-189 0 -351 67t-276 184.5t-179 284.5t-65 361zM653 276q0 -64 34 -102.5t91 -38.5q88 0 188.5 100.5t168 247.5t67.5 273q0 74 -37 114.5t-106 40.5 q-84 0 -180.5 -106t-161 -256.5t-64.5 -272.5z" />
<glyph unicode="A" horiz-adv-x="1216" d="M45 0v35q41 6 68.5 19t47 39t31 52t27.5 74l324 967h121l340 -1010q27 -84 59 -112.5t108 -28.5v-35h-413v35q62 1 87 29q14 16 14 40q0 20 -9 46l-107 325h-378l-80 -235q-14 -40 -20.5 -66t-9 -54.5t5.5 -45t29.5 -27.5t57.5 -12v-35h-303zM387 547h330l-162 497h-4z " />
<glyph unicode="B" horiz-adv-x="1044" d="M72 0v35q74 0 103.5 40t29.5 146v731q0 110 -29 148.5t-104 38.5v35h442q200 0 304 -82.5t104 -204.5q0 -97 -57.5 -161.5t-178.5 -104.5v-5q135 -28 219 -119t84 -210q0 -131 -104.5 -209t-272.5 -78h-540zM360 242q0 -117 25.5 -157t95.5 -40h97q97 0 164 65t67 187 q0 130 -92 209.5t-246 79.5h-111v-344zM360 631h121q128 0 202.5 67.5t74.5 178.5q0 115 -71.5 183t-209.5 68h-117v-497z" />
<glyph unicode="C" horiz-adv-x="1259" d="M125 555q0 184 78 332t216.5 231.5t311.5 83.5q83 0 193 -24.5t135 -24.5q45 0 63 37h33v-350h-35q-42 165 -135 241t-246 76q-138 0 -237.5 -70t-148 -188t-48.5 -270q0 -263 124 -423.5t323 -160.5q277 0 409 258l31 -29q-59 -140 -190.5 -221.5t-299.5 -81.5 q-109 0 -210 37t-184 107.5t-133 184.5t-50 255z" />
<glyph unicode="D" horiz-adv-x="1366" d="M63 0v35q73 0 103.5 40t30.5 146v731q0 105 -30 146t-104 41v35h543q162 0 291.5 -51.5t208.5 -138t120.5 -193.5t41.5 -224q0 -91 -22.5 -172.5t-73 -154.5t-124.5 -125.5t-183.5 -83.5t-243.5 -31h-558zM352 262q0 -91 15.5 -138t46 -63t88.5 -16h121 q217 0 340.5 139.5t123.5 380.5q0 87 -17 166.5t-56.5 152.5t-97.5 126.5t-145.5 85.5t-195.5 32h-223v-866z" />
<glyph unicode="E" horiz-adv-x="1044" d="M70 0v35q74 0 103.5 36t29.5 148v733q0 108 -28.5 147.5t-104.5 39.5v35h845v-197h-22q-10 49 -23 76.5t-38.5 41.5t-53.5 17.5t-82 3.5h-338v-502h328q63 0 89 21.5t38 93.5h35v-285h-35q-19 75 -46 94t-118 19h-291v-420q0 -44 18.5 -62t67.5 -18h205q49 0 76.5 1 t58 6.5t47 15.5t36 29t34.5 44.5t33 65.5h35l-54 -219h-845z" />
<glyph unicode="F" d="M72 0v35q75 0 104 39.5t29 146.5v731q0 108 -29 147.5t-104 39.5v35h805v-209h-27q-9 44 -19.5 71t-23 44t-35.5 24.5t-46 9.5t-67 2h-299v-491h306q64 0 93.5 33t37.5 106h32v-330h-32q-6 133 -127 133h-310v-346q0 -106 29.5 -146t104.5 -40v-35h-422z" />
<glyph unicode="G" horiz-adv-x="1343" d="M121 553q0 121 35 227t94.5 182t137 131t164 82t173.5 27q93 0 188 -27.5t131 -27.5q28 0 42.5 8.5t23.5 30.5h37v-346h-33q-11 80 -51 143t-96 99.5t-117.5 55.5t-124.5 19q-184 0 -304 -147t-120 -385q0 -258 137 -428t346 -170q36 0 67 5t62 18t49.5 39t18.5 63v127 q0 108 -28.5 151t-100.5 43h-45v35h475v-35q-82 0 -113.5 -38.5t-31.5 -119.5v-315q-44 -12 -158.5 -20.5t-169.5 -8.5q-149 0 -269 35t-196.5 92t-128 134t-73 156.5t-21.5 164.5z" />
<glyph unicode="H" horiz-adv-x="1366" d="M74 0v35q72 0 102.5 37.5t30.5 148.5v731q0 106 -28 146.5t-105 40.5v35h424v-35q-73 0 -104.5 -39.5t-31.5 -147.5v-334h639v334q0 107 -28 147t-103 40v35h420v-35q-75 0 -104 -41t-29 -146v-731q0 -104 29 -145t104 -41v-35h-420v35q73 0 102 37t29 149v340h-639v-340 q0 -105 30 -145.5t106 -40.5v-35h-424z" />
<glyph unicode="I" horiz-adv-x="532" d="M55 0v35q74 0 103.5 38.5t29.5 147.5v731q0 109 -28.5 148t-104.5 39v35h422v-35q-74 0 -103.5 -41t-29.5 -146v-731q0 -106 29.5 -146t103.5 -40v-35h-422z" />
<glyph unicode="J" horiz-adv-x="661" d="M-41 -350l29 20q42 -53 106 -53q31 0 62 13.5t62.5 43.5t51 90t19.5 142v1046q0 106 -29.5 146.5t-105.5 40.5v35h424v-35q-75 0 -104.5 -41.5t-29.5 -145.5v-1083q0 -86 -26 -151t-69.5 -101.5t-93 -54t-103.5 -17.5q-127 0 -193 105z" />
<glyph unicode="K" horiz-adv-x="1259" d="M80 0v35q72 0 102.5 37.5t30.5 148.5v731q0 111 -29 149t-104 38v35h420v-35q-71 0 -101 -40.5t-30 -146.5v-354l383 377q33 33 47 54t14 44q0 28 -17 43.5t-57 22.5v35h443v-35h-58q-53 0 -120.5 -35t-126.5 -94l-365 -361l485 -491q74 -75 113.5 -96.5t106.5 -26.5v-35 h-279l-569 575v-354q0 -111 30 -148.5t101 -37.5v-35h-420z" />
<glyph unicode="L" horiz-adv-x="1024" d="M88 0v35q71 0 102 44.5t31 151.5v738q0 98 -30 134t-103 36v35h420v-35q-72 0 -101.5 -44.5t-29.5 -140.5v-784q0 -67 28.5 -90t104.5 -23h233q107 0 150.5 37t81.5 162h35l-72 -256h-850z" />
<glyph unicode="M" horiz-adv-x="1579" d="M51 0v35q83 11 111.5 59t38.5 156l71 807q-34 37 -68.5 56t-84.5 26v35h297l375 -924l380 924h277v-35q-132 -3 -132 -154q0 -14 1 -29l59 -723q9 -110 37.5 -150.5t108.5 -47.5v-35h-422v35q73 13 100 51q22 32 22 95q0 14 -1 30l-58 758h-4l-401 -969h-31l-393 969h-4 l-66 -723q-1 -17 -1 -32q0 -68 29 -110q36 -52 124 -69v-35h-365z" />
<glyph unicode="N" horiz-adv-x="1366" d="M39 1139v35h301l733 -914h4v686q0 112 -32 152.5t-111 40.5v35h354v-35q-86 0 -118.5 -40.5t-32.5 -144.5v-954h-35l-828 1020h-4v-823q0 -88 36.5 -125t117.5 -37v-35h-356v35q79 0 112 40t33 161v686q0 105 -37.5 156.5t-136.5 60.5z" />
<glyph unicode="O" horiz-adv-x="1492" d="M121 592q0 171 82 311t226 219.5t321 79.5q171 0 314 -80.5t225.5 -221t82.5 -308.5q0 -128 -49 -243.5t-133 -198t-200 -131t-245 -48.5q-172 0 -315.5 82t-226 225t-82.5 314zM301 590q0 -257 122 -415.5t320 -158.5q107 0 194 48t141.5 128.5t84 180.5t29.5 209 q0 135 -34.5 245t-94 181.5t-139 110t-170.5 38.5q-206 0 -329.5 -155.5t-123.5 -411.5z" />
<glyph unicode="P" horiz-adv-x="1024" d="M78 0v35q45 0 72 12.5t44 53.5t17 116v735q0 106 -29.5 146.5t-103.5 40.5v35h428q117 0 207 -29t142.5 -77.5t79 -106.5t26.5 -121q0 -146 -107 -224.5t-307 -78.5q-77 0 -180 12v-328q0 -107 29 -146.5t104 -39.5v-35h-422zM367 602q59 -20 145 -20q132 0 208.5 67.5 t76.5 186.5q0 40 -8.5 78.5t-30 78t-53 69t-81.5 48t-112 18.5h-145v-526z" />
<glyph unicode="Q" horiz-adv-x="1472" d="M102 588q0 116 45 226.5t124 196.5t197.5 138.5t256.5 52.5q175 0 320.5 -81t229 -222t83.5 -311q0 -216 -140 -387t-362 -215q19 -15 53.5 -57.5t71.5 -86t82 -86.5t100.5 -70.5t112.5 -27.5q54 0 106 18l13 -32q-85 -39 -195 -39q-105 0 -191.5 32t-144 81.5 t-102 100.5t-89 99.5t-81.5 67.5q-88 18 -173.5 68.5t-157 126t-115.5 182.5t-44 225zM283 586q0 -253 122.5 -411.5t319.5 -158.5q205 0 329 153t124 409q0 121 -26 220t-68.5 164.5t-100 110.5t-119.5 64.5t-127 19.5q-207 0 -330.5 -155.5t-123.5 -415.5z" />
<glyph unicode="R" horiz-adv-x="1216" d="M70 0v35q49 0 75.5 13t42 54.5t15.5 118.5v735q0 111 -29.5 147t-103.5 36v35h481q96 0 172 -26t123 -70t71.5 -98t24.5 -114q0 -102 -59 -176.5t-183 -111.5q59 -38 114.5 -108.5t96.5 -140.5t82.5 -136.5t91 -110t103.5 -47.5v-35h-240q-56 68 -113.5 157t-95 150.5 t-81 119t-94 87t-111.5 29.5h-95v-322q0 -105 30.5 -145.5t103.5 -40.5v-35h-422zM358 592h144q72 0 126.5 23t86.5 62t47.5 85.5t15.5 99.5q0 118 -81.5 192t-215.5 74h-123v-536z" />
<glyph unicode="S" horiz-adv-x="854" d="M111 -12v317h34q1 -62 21 -113t50 -83t69 -53.5t74.5 -30.5t68.5 -9q106 0 171 57t65 152q0 57 -33 108.5t-87.5 93t-111.5 76.5t-119 75.5t-96 74.5q-100 100 -100 246q0 135 88.5 219t230.5 84q54 0 101.5 -11t79.5 -22.5t49 -11.5q14 0 19 5.5t11 27.5h33v-275h-35 q-13 122 -87 182t-173 60q-94 0 -152.5 -47.5t-58.5 -128.5q0 -61 31.5 -112t85.5 -90t112 -73t126 -78.5t112 -88.5q103 -103 103 -234q0 -138 -98 -236t-236 -98q-54 0 -113 15.5t-100.5 31t-55.5 15.5q-30 0 -45 -45h-34z" />
<glyph unicode="T" horiz-adv-x="1153" d="M51 948v269h35q26 -22 64 -33q45 -10 112 -10h615q76 0 117 9.5t69 33.5h37v-269h-23q-10 42 -23 68.5t-39.5 51.5t-72 36.5t-113.5 11.5h-178v-901q0 -106 26 -143t101 -37v-35h-416v35q35 0 57 6.5t41 25.5t27.5 57t8.5 97v895h-170q-120 0 -176.5 -38.5t-63.5 -129.5 h-35z" />
<glyph unicode="U" horiz-adv-x="1366" d="M76 1139v35h424v-35q-75 0 -105 -38t-30 -147v-594q0 -140 77 -224.5t222 -84.5q101 0 187.5 50t147.5 145v706q0 102 -27.5 143t-97.5 44v35h414v-35q-74 0 -103.5 -41t-29.5 -146v-731q0 -110 30.5 -148t102.5 -38v-35h-289v164q-85 -99 -180 -146t-211 -47 q-103 0 -182 34t-125 92.5t-69 128.5t-23 149v577q0 112 -30 149.5t-103 37.5z" />
<glyph unicode="V" horiz-adv-x="1216" d="M39 1139v35h426v-35q-65 1 -91 -35q-13 -18 -12 -43q0 -26 13 -60l287 -757l272 731q18 48 18 81q0 83 -106 83v35h342v-37q-66 0 -117.5 -54.5t-95.5 -173.5l-346 -925h-33l-363 952q-45 118 -80.5 159t-113.5 44z" />
<glyph unicode="W" horiz-adv-x="1878" d="M41 1139v35h434v-35q-73 -7 -93 -39q-9 -14 -10 -36q0 -27 15 -67l275 -745l249 682l-26 76q-26 73 -62.5 101t-101.5 28v35h430v-35q-81 -1 -103 -33q-10 -14 -11 -38q0 -30 16 -73l274 -743l240 657q28 76 28 128q0 104 -116 104v33h356v-35q-69 -4 -114.5 -56.5 t-92.5 -181.5l-330 -917h-36l-320 866l-311 -866h-33l-358 968q-17 46 -31 76.5t-29.5 52t-27.5 33t-31.5 17t-35 7t-44.5 1.5z" />
<glyph unicode="X" horiz-adv-x="1259" d="M37 0v35q60 0 105 27t108 108l309 395l-283 391q-84 116 -133 149.5t-106 33.5v35h450v-35q-65 0 -81 -39q-4 -11 -5 -22q0 -32 31 -74l223 -310l219 277q37 46 48 83q4 13 4 24q0 22 -14 37q-22 24 -81 24v35h375v-35q-77 0 -118.5 -25t-100.5 -102l-291 -375l299 -408 q80 -109 125 -146.5t109 -47.5v-35h-471v35q73 1 87 60q3 12 3 25q0 49 -43 107l-207 285l-225 -293q-53 -64 -53 -113q0 -6 1 -12q7 -52 91 -59v-35h-375z" />
<glyph unicode="Y" horiz-adv-x="1153" d="M37 1139v35h459v-35q-93 0 -114 -31q-8 -12 -8 -26q0 -25 25 -60l232 -356l186 295q40 60 40 110q0 7 -1 13q-6 55 -76 55v35h322v-35q-67 -4 -102 -29.5t-85 -103.5l-264 -416v-369q0 -106 27 -146t102 -40v-35h-428v35q38 0 61 5.5t44 24t30 57t9 99.5v369l-250 389 q-62 97 -101 127t-108 33z" />
<glyph unicode="Z" horiz-adv-x="1153" d="M63 0v31l773 1085h-506q-112 0 -160.5 -30t-73.5 -113h-33l19 201h954v-37l-768 -1080h443q147 0 226.5 52.5t117.5 173.5h35l-43 -283h-984z" />
<glyph unicode="[" horiz-adv-x="532" d="M139 -410v1584h326v-37h-62q-32 0 -62.5 -18t-43.5 -46q-8 -14 -14 -61q-2 -14 -2 -56v-1149q0 -17 4 -75q6 -46 39 -75.5t79 -29.5h62v-37h-326z" />
<glyph unicode="\" horiz-adv-x="1024" d="M166 1219h94l598 -1244h-94z" />
<glyph unicode="]" horiz-adv-x="532" d="M68 -373h61q31 0 61.5 18t45.5 46q10 23 12 61q4 28 4 55v1149q0 30 -6 76t-39.5 75.5t-77.5 29.5h-61v37h325v-1584h-325v37z" />
<glyph unicode="^" horiz-adv-x="960" d="M37 670l430 716h31l426 -716h-93l-350 585l-350 -585h-94z" />
<glyph unicode="_" horiz-adv-x="1024" d="M-18 -154h1060v-102h-1060v102z" />
<glyph unicode="`" horiz-adv-x="681" d="M182 1286h113l133 -409h-39z" />
<glyph unicode="a" horiz-adv-x="747" d="M61 170q0 58 29.5 99.5t79 64.5t100 38t107 32t86.5 34v54q0 78 -43.5 127t-118.5 49q-64 0 -117 -40.5t-75 -115.5l-37 10q23 101 96.5 162t171.5 61q48 0 92.5 -14.5t83.5 -44t62.5 -83t23.5 -124.5v-311q0 -64 8.5 -88.5t32.5 -24.5q17 0 26.5 15t22.5 55h35 q-5 -68 -42.5 -108t-98.5 -40q-46 0 -75 24.5t-48 78.5q-54 -59 -96 -81t-99 -22q-85 0 -146 57t-61 136zM203 188q0 -55 32.5 -94t77.5 -39q37 0 83.5 25t66.5 67v246q-30 -13 -78 -29t-74 -27t-54.5 -30t-41 -48t-12.5 -71z" />
<glyph unicode="b" horiz-adv-x="917" d="M-2 1227v35l233 24h35v-649q45 50 111 79t133 29q141 0 238.5 -102.5t97.5 -251.5q0 -55 -15 -108t-52 -106.5t-91.5 -94t-141.5 -65.5t-194 -25q-90 0 -225 22v1088q0 84 -21 104.5t-108 20.5zM266 170q0 -76 25.5 -108.5t97.5 -32.5q62 0 115.5 19.5t96.5 60t68 108.5 t25 158q0 98 -38 171t-91.5 106.5t-111.5 33.5q-56 0 -100 -24t-87 -78v-414z" />
<glyph unicode="c" horiz-adv-x="788" d="M72 344q0 167 109.5 284t264.5 117q64 0 130 -20t75 -20q31 0 49 40h35v-256h-35q-23 99 -88 157.5t-155 58.5q-107 0 -175.5 -84.5t-68.5 -217.5q0 -149 80.5 -256.5t191.5 -107.5q70 0 143.5 38.5t127.5 112.5v-53q-118 -160 -320 -160q-161 0 -262.5 102t-101.5 265z " />
<glyph unicode="d" d="M61 377q0 153 99.5 260.5t240.5 107.5q111 0 244 -88v445q0 76 -20 100.5t-76 24.5h-41v35l242 24h34v-1145q0 -60 26 -83t95 -23v-35h-422q-110 0 -194.5 34.5t-132.5 91t-71.5 120.5t-23.5 131zM213 408q0 -69 16.5 -132.5t52 -119.5t99.5 -89.5t149 -33.5 q61 0 88 25.5t27 84.5v437q-42 58 -98.5 90t-112.5 32q-98 0 -159.5 -81t-61.5 -213z" />
<glyph unicode="e" horiz-adv-x="831" d="M74 354q0 164 105 277.5t259 113.5q129 1 225 -89q89 -83 89 -197v-17h-533v-9q-1 -88 19 -158q20 -74 52 -117.5t73 -72.5t76.5 -39.5t68.5 -10.5q74 0 125.5 31t130.5 120v-53q-66 -84 -134.5 -120t-164.5 -36q-170 0 -280.5 106.5t-110.5 270.5zM219 477h395v14 q0 101 -56 154q-60 57 -138 57q-89 0 -142 -61t-59 -164z" />
<glyph unicode="f" horiz-adv-x="532" d="M29 0v35h32q55 0 78 21.5t23 74.5v539h-101v35q68 28 101 49v143q0 70 17.5 136t52.5 124t97.5 93.5t143.5 35.5q127 0 205 -59l-70 -183h-35q1 15 1 30q0 77 -32 119q-38 50 -106 50q-62 0 -98.5 -44.5t-36.5 -125.5v-350h180v-53h-180v-527q0 -59 26 -83.5t79 -24.5h34 v-35h-411z" />
<glyph unicode="g" horiz-adv-x="854" d="M25 -399q0 64 52 118.5t183 108.5v4q-74 17 -116 52.5t-42 80.5q0 119 224 199v4q-109 29 -168.5 101t-59.5 173q0 130 88 216.5t220 86.5q26 0 96 -4t94 -4h233v-82h-192q82 -101 82 -211q0 -109 -79 -194.5t-191 -91.5q-81 -4 -158.5 -51.5t-77.5 -83.5q0 -24 14 -41 q19 -22 94.5 -41t159 -31.5t168.5 -38t119 -59.5q59 -59 59 -129q0 -128 -129.5 -216t-316.5 -88q-159 0 -257.5 61.5t-98.5 160.5zM115 -360q0 -78 104.5 -130.5t259.5 -52.5q120 0 196.5 45t76.5 117q0 47 -34 77.5t-125.5 58t-266.5 57.5q-102 -28 -156.5 -72.5 t-54.5 -99.5zM229 457q0 -118 49.5 -190t129.5 -72q81 0 130.5 69t49.5 193q0 110 -49.5 179t-128.5 69q-81 0 -131 -68.5t-50 -179.5z" />
<glyph unicode="h" horiz-adv-x="897" d="M4 0v35q82 2 105.5 27t23.5 112v944q0 69 -25 89t-104 20v35l234 24h34v-686q69 80 126.5 112.5t127.5 32.5q99 0 170.5 -65t71.5 -186v-320q0 -84 23 -111.5t94 -27.5v-35h-377v35q73 0 97 23t24 94v358q0 72 -40 115t-106 43q-61 0 -109.5 -32t-101.5 -106v-397 q0 -56 26.5 -77t94.5 -21v-35h-389z" />
<glyph unicode="i" horiz-adv-x="468" d="M29 0v35q85 0 111 18.5t26 81.5v445q0 72 -26.5 90t-110.5 18v35l241 22h35v-610q0 -57 23.5 -78.5t97.5 -21.5v-35h-397zM147 1032q0 36 27 62t64 26t62.5 -25.5t25.5 -62.5t-25.5 -63.5t-62.5 -26.5t-64 26.5t-27 63.5z" />
<glyph unicode="j" horiz-adv-x="468" d="M-82 -455h7q132 0 191 71q62 74 62 249v731q0 55 -26 73.5t-111 18.5v35l242 22h34v-860q0 -192 -98 -285q-94 -89 -284 -89h-17v34zM147 1032q0 36 27 62t64 26t62.5 -25.5t25.5 -62.5t-25.5 -63.5t-62.5 -26.5t-64 26.5t-27 63.5z" />
<glyph unicode="k" horiz-adv-x="897" d="M18 0v35q84 2 106.5 26t22.5 113v954q0 63 -23.5 81t-105.5 18v35l234 24h35v-1149q0 -62 25 -82t96 -20v-35h-390zM289 369v2l192 176q39 36 52 67t-7.5 52t-76.5 22v35h395v-35h-35q-104 0 -199 -88l-188 -172l301 -301q51 -51 87.5 -70t90.5 -22v-35h-237z" />
<glyph unicode="l" horiz-adv-x="491" d="M35 1227v35l250 24h34v-1149q0 -59 23.5 -80.5t89.5 -21.5h19v-35h-404v35h37q56 0 76 29t20 108v956q0 54 -21 76.5t-77 22.5h-47z" />
<glyph unicode="m" horiz-adv-x="1472" d="M16 688v35l250 22h35v-151h4q44 69 115 110t143 41q76 0 138.5 -41.5t89.5 -121.5q117 163 268 163q41 0 82 -12.5t79 -39.5t61.5 -77t23.5 -116v-365q0 -57 25 -78.5t97 -21.5v-35h-385v35q77 0 100 25.5t23 113.5v344q0 70 -42.5 110t-114.5 40q-113 0 -205 -140v-389 q0 -59 24.5 -81.5t96.5 -22.5v-35h-381v35q54 0 76.5 8t33.5 37t11 94v336q0 77 -45 117.5t-109 40.5q-60 0 -116.5 -38.5t-92.5 -101.5v-395q0 -56 27 -78t96 -22v-33h-385v35q71 0 97 20t26 97v430q0 58 -24.5 82t-76.5 24h-45z" />
<glyph unicode="n" d="M20 0v35q41 0 60.5 3t35.5 17.5t20.5 41.5t4.5 77v408q0 66 -23.5 86t-97.5 20v35l226 22h35v-145q127 145 262 145q99 0 172 -68.5t73 -191.5v-327q0 -72 24 -97.5t99 -25.5v-35h-387v35q73 0 99 19t26 71v379q0 82 -48.5 124t-113.5 42q-53 0 -102 -34.5t-104 -107.5 v-354q0 -86 21.5 -112.5t100.5 -26.5v-35h-383z" />
<glyph unicode="o" d="M72 360q0 166 113.5 275.5t283.5 109.5t283.5 -109.5t113.5 -275.5q0 -164 -113.5 -273.5t-283.5 -109.5t-283.5 109.5t-113.5 273.5zM223 360q0 -149 63 -245.5t183 -96.5q82 0 139.5 50t82 125t24.5 167q0 94 -25.5 170.5t-82.5 125.5t-138 49q-115 0 -180.5 -93.5 t-65.5 -251.5z" />
<glyph unicode="p" d="M18 -535q74 0 100.5 20.5t26.5 80.5v1009q0 73 -22.5 93t-104.5 20v35l232 22h35v-122q69 67 126 94.5t126 27.5q141 0 234 -107.5t93 -270.5q0 -167 -102.5 -278.5t-257.5 -111.5q-59 0 -108.5 19.5t-110.5 66.5v-477q0 -69 23.5 -95t97.5 -26v-34h-388v34zM285 115 q40 -41 94 -65.5t106 -24.5q97 0 162.5 91t65.5 226q0 146 -65.5 241t-166.5 95q-55 0 -100 -25t-96 -84v-454z" />
<glyph unicode="q" horiz-adv-x="917" d="M59 338q0 80 26 146.5t81.5 121.5t153.5 86t231 31q58 0 223 -10v-1143q0 -62 26 -83.5t99 -21.5v-34h-383v34q67 0 93 21.5t26 81.5v467q-102 -58 -215 -58q-160 0 -260.5 100t-100.5 261zM211 352q0 -55 15 -109t45 -102t83 -78t121 -30q76 0 160 47v582q-49 10 -96 10 q-152 0 -240 -86t-88 -234z" />
<glyph unicode="r" horiz-adv-x="704" d="M14 688v35l254 22h35v-157q101 87 156 122t92 35q31 0 68 -16t65 -41l-55 -129q-114 64 -172 64q-35 0 -69.5 -20t-84.5 -68v-398q0 -60 24.5 -81t96.5 -21v-35h-383v35q81 0 102 26t21 113v395q0 78 -27.5 98.5t-122.5 20.5z" />
<glyph unicode="s" horiz-adv-x="641" d="M80 -18v247h35q22 -105 89 -158t144 -53q54 0 90.5 35.5t36.5 89.5q0 41 -21 72.5t-55 52t-75 38t-82.5 37.5t-75.5 43.5t-55 62t-21 88.5q0 85 65 146.5t156 61.5q41 0 84 -17t64 -17q29 0 43 34h35v-223h-41q-10 87 -61.5 135t-119.5 48q-54 0 -87 -27.5t-33 -71.5 q0 -37 21 -66t54.5 -48t74 -37t81 -39.5t74 -48t54.5 -69t21 -97.5q0 -91 -67.5 -157.5t-161.5 -66.5q-46 0 -109 27t-75 27q-20 0 -32.5 -14t-14.5 -35h-35z" />
<glyph unicode="t" horiz-adv-x="598" d="M33 674v35q150 75 241 262h35v-244h252v-53h-252v-467q0 -74 35 -113t96 -39q74 0 135 70l23 -27q-95 -121 -219 -121q-92 0 -150.5 58.5t-58.5 152.5v486h-137z" />
<glyph unicode="u" d="M25 688v35l233 22h35v-518q0 -76 45 -120t119 -44q104 0 192 119v391q0 75 -23.5 94t-117.5 21v35l246 22h34v-608q0 -60 25.5 -81t99.5 -21v-35l-264 -14v133h-4q-109 -142 -254 -142q-105 0 -171 70.5t-66 173.5v371q0 54 -26.5 75t-102.5 21z" />
<glyph unicode="v" horiz-adv-x="854" d="M33 688v35h350v-35q-53 -5 -67 -35q-5 -11 -4 -25q0 -26 16 -65l161 -387l142 367q21 48 21 80q0 15 -4 25q-14 34 -89 40v35h266v-35q-62 -6 -87 -25t-52 -79l-233 -600h-35l-232 569q-36 88 -61.5 110t-91.5 25z" />
<glyph unicode="w" horiz-adv-x="1366" d="M29 688v35h352v-35q-60 -2 -72 -24q-4 -7 -4 -18q0 -23 17 -64l163 -406l170 436q-24 45 -44 60t-62 16v35h350v-35q-69 -2 -87 -30q-8 -13 -8 -28q0 -20 13 -46l162 -408l149 379q18 43 18 72q0 15 -6 27q-16 32 -85 34v35h282v-35q-75 0 -104 -22.5t-64 -110.5 l-225 -571h-35l-231 571l-227 -571h-35l-254 624q-31 80 -133 80z" />
<glyph unicode="x" d="M31 0v35q74 0 111.5 19.5t103.5 99.5l157 186l-172 225q-56 72 -93.5 95.5t-106.5 27.5v35h399v-35q-63 -5 -63 -43q0 -25 28 -65l97 -136l98 121q38 42 38 78v7q-4 38 -57 38v35h287v-35q-67 -7 -107 -33t-106 -104l-121 -143l219 -287q35 -46 73 -66t89 -20v-35h-381 v35q55 8 55 40q0 20 -22 50l-127 174l-129 -162q-27 -33 -27 -59q0 -4 1 -10q7 -30 51 -33v-35h-295z" />
<glyph unicode="y" horiz-adv-x="854" d="M33 688v35h348v-35q-42 -6 -56 -35q-6 -12 -6 -28q0 -21 11 -47l174 -410l127 383q16 43 16 72q0 15 -4 27q-12 35 -70 38v35h256v-35q-58 0 -96 -39.5t-69 -130.5l-289 -854q-42 -124 -107.5 -194t-132.5 -70q-40 0 -90 31l47 125q41 -17 70 -17q66 0 108 41t76 137 l94 263l-260 600q-28 64 -56.5 85.5t-90.5 22.5z" />
<glyph unicode="z" horiz-adv-x="747" d="M61 0v35l461 653h-203q-94 0 -154 -47t-69 -129h-35l19 211h608v-35l-461 -653h226q111 0 163.5 42t55.5 144h35l-19 -221h-627z" />
<glyph unicode="{" horiz-adv-x="983" d="M287 360v46q106 15 171.5 79.5t65.5 153.5q0 43 -20 133q-23 90 -23 164q0 139 97 245.5t251 135.5l9 -37q-108 -25 -168 -85t-60 -144q0 -53 23 -166q20 -118 20 -154q0 -112 -74 -202t-210 -146q136 -56 210 -146t74 -202q0 -36 -20 -154q-23 -113 -23 -166 q0 -84 60 -144t168 -85l-9 -37q-154 29 -251 135.5t-97 245.5q0 74 23 164q20 94 20 133q0 89 -65.5 153.5t-171.5 79.5z" />
<glyph unicode="|" horiz-adv-x="1015" d="M463 -483v1702h90v-1702h-90z" />
<glyph unicode="}" horiz-adv-x="983" d="M145 -514q108 25 168 85t60 144q0 42 -21 166q-22 108 -22 154q0 112 74 202t210 146q-136 56 -210 146t-74 202q0 46 22 154q21 124 21 166q0 84 -60 144t-168 85l9 37q154 -29 251 -135.5t97 -245.5q0 -65 -21 -164q-22 -82 -22 -133q0 -89 65.5 -153.5t171.5 -79.5 v-46q-106 -15 -171.5 -79.5t-65.5 -153.5q0 -47 22 -133q21 -99 21 -164q0 -139 -97 -245.5t-251 -135.5z" />
<glyph unicode="~" horiz-adv-x="1366" d="M147 518q-3 122 65.5 204.5t182.5 82.5q51 0 138 -29t165.5 -64.5t162 -64.5t128.5 -29q76 0 124.5 48.5t57.5 136.5h48q-3 -128 -72 -207.5t-178 -79.5q-62 0 -183 45.5t-238.5 91t-168.5 45.5q-74 0 -121.5 -46t-62.5 -134h-48z" />
<glyph unicode="&#xa1;" horiz-adv-x="598" d="M203 582q0 40 28 69t68 29t69 -29t29 -69t-29 -68.5t-69 -28.5t-68 28.5t-28 68.5zM209 -479q0 22 5 70t5 49l62 733h32l54 -733q6 -93 6 -119q0 -46 -22.5 -75.5t-57.5 -29.5q-37 0 -60.5 29t-23.5 76z" />
<glyph unicode="&#xa2;" horiz-adv-x="854" d="M104 344q0 119 59.5 217.5t161 148t216.5 29.5l102 320h35l-105 -326q28 -4 61.5 -16t47.5 -12q30 0 51 40h35v-256h-35q-38 160 -172 203l-190 -592q67 -61 149 -61q154 0 268 151v-53q-121 -160 -319 -160q-73 0 -131 21l-88 -272h-35l92 284q-98 44 -150.5 130.5 t-52.5 203.5zM246 399q0 -78 26 -150.5t72 -123.5l184 575q-125 21 -203.5 -66t-78.5 -235z" />
<glyph unicode="&#xa3;" d="M47 47q0 60 76 109.5t184 42.5q25 93 0 204h-217v46h217q-13 45 -24 124.5t-11 143.5q0 135 76 220t197 85q163 0 250 -160l-33 -16q-41 68 -81 97.5t-91 29.5q-75 0 -118.5 -59.5t-43.5 -163.5q0 -67 5 -155.5t5 -145.5h221v-46h-221q-6 -75 -16 -117t-33 -87 q68 -17 141.5 -45.5t124 -46t90.5 -17.5q48 0 79.5 41.5t35.5 120.5h33q20 -105 -54.5 -190t-176.5 -85q-72 0 -162.5 38.5t-153.5 95.5q-35 -59 -91 -96.5t-110 -37.5q-44 0 -71 19t-27 51zM86 61q0 -19 13.5 -31t33.5 -12q43 0 85 32.5t67 86.5q-31 10 -58 10 q-51 0 -96 -27.5t-45 -58.5z" />
<glyph unicode="&#xa4;" horiz-adv-x="1388" d="M227 250l123 123q-100 121 -100 282q0 157 100 283l-123 123l62 61l123 -123q131 101 282 101q154 0 283 -101l123 123l61 -61l-123 -123q48 -56 74.5 -131.5t26.5 -151.5q0 -81 -28 -155.5t-73 -126.5l123 -123l-61 -62l-125 125q-52 -49 -126 -75.5t-155 -26.5 q-153 0 -282 100l-123 -123zM340 655q0 -148 103 -251t251 -103t251.5 103t103.5 251t-103.5 251.5t-251.5 103.5t-251 -103.5t-103 -251.5z" />
<glyph unicode="&#xa5;" horiz-adv-x="1153" d="M43 324v57h453v209h-453v57h449l-213 332q-63 98 -101.5 127.5t-107.5 32.5v35h458v-35q-93 0 -114.5 -30.5t18.5 -86.5l195 -305h8l149 246q29 45 37.5 84t-9 65.5t-64.5 26.5v35h321v-35q-66 -4 -100.5 -30t-85.5 -103l-228 -359h449v-57h-453v-209h453v-57h-453v-103 q0 -106 27 -146t102 -40v-35h-428v35q38 0 61 6t44 24.5t30 56.5t9 99v103h-453z" />
<glyph unicode="&#xa6;" horiz-adv-x="1015" d="M463 236h90v-719h-90v719zM463 498v721h90v-721h-90z" />
<glyph unicode="&#xa7;" horiz-adv-x="854" d="M113 395q0 83 37 152t120 141q-53 48 -84.5 110t-31.5 124q0 111 78 181.5t202 70.5q107 0 182.5 -56.5t75.5 -136.5q0 -36 -20 -60t-51 -24q-29 0 -48.5 20.5t-19.5 49.5q0 15 10 46t10 46q0 32 -41 53t-104 21q-82 0 -136 -41t-54 -105q0 -45 25 -89t71 -86.5t94 -80.5 t110.5 -89t104.5 -93q96 -96 96 -223q0 -80 -35 -146.5t-118 -144.5q66 -73 91 -124t25 -108q0 -116 -80.5 -188t-209.5 -72q-99 0 -174.5 58t-75.5 133q0 38 21 62t53 24q28 0 45.5 -19.5t17.5 -50.5q0 -19 -11.5 -49.5t-11.5 -38.5q0 -34 39.5 -56t100.5 -22 q89 0 143.5 41.5t54.5 110.5q0 42 -24.5 85t-68 84t-88.5 77t-99.5 80t-87.5 77q-79 79 -106 132t-27 124zM193 467q0 -40 16.5 -76t55.5 -76t75 -71t104.5 -86.5t114.5 -96.5q57 57 81 99.5t24 87.5q0 37 -12 67t-57 78.5t-107.5 103t-188.5 158.5q-57 -46 -81.5 -89.5 t-24.5 -98.5z" />
<glyph unicode="&#xa8;" horiz-adv-x="681" d="M98 1077q0 35 25.5 60.5t60.5 25.5t60.5 -25.5t25.5 -60.5t-25.5 -60.5t-60.5 -25.5t-60.5 25.5t-25.5 60.5zM414 1077q0 35 25.5 60.5t60.5 25.5t60.5 -25.5t25.5 -60.5t-25.5 -60.5t-60.5 -25.5t-60.5 25.5t-25.5 60.5z" />
<glyph unicode="&#xa9;" horiz-adv-x="1556" d="M70 666q0 192 94.5 354.5t257 257t354.5 94.5q144 0 275.5 -56t226.5 -150t151 -225t56 -275q0 -115 -36 -223.5t-101.5 -195.5t-152.5 -152.5t-195.5 -101.5t-223.5 -36q-144 0 -275 56t-225 151t-150 226.5t-56 275.5zM123 666q0 -177 87.5 -328t238 -239.5 t327.5 -88.5q133 0 254 52.5t209 140.5t140.5 209t52.5 254q0 177 -88.5 327.5t-239.5 238t-328 87.5q-133 0 -253.5 -52t-208 -139.5t-139.5 -208t-52 -253.5zM358 672q0 192 124.5 324t305.5 132q72 0 143 -25.5t91 -25.5q35 0 41 60h31l18 -297h-31q-31 125 -106 185 t-178 60q-135 0 -219 -112.5t-84 -292.5q0 -182 86 -286.5t235 -104.5q89 0 158.5 41t138.5 133l21 -14q-127 -220 -349 -220q-184 0 -305 126t-121 317z" />
<glyph unicode="&#xaa;" horiz-adv-x="491" d="M37 860q0 31 15 53.5t44.5 37t58 23.5t72.5 21t70 21v43q0 40 -27.5 65t-70.5 25q-45 0 -72 -22t-49 -68h-35q17 66 66 104.5t116 38.5t120.5 -39t53.5 -119v-190q0 -59 19 -59q18 0 26 41h35q0 -40 -28 -65.5t-72 -25.5q-61 0 -82 50q-56 -50 -121 -50q-58 0 -98.5 33.5 t-40.5 81.5zM141 866q0 -33 19.5 -55.5t48.5 -22.5q50 0 88 48v147q-90 -25 -123 -47.5t-33 -69.5z" />
<glyph unicode="&#xab;" horiz-adv-x="854" d="M53 332l387 375h41l-264 -375l264 -375h-41zM383 332l387 375h41l-264 -375l264 -375h-41z" />
<glyph unicode="&#xac;" horiz-adv-x="1366" d="M145 848v88h1076v-551h-88v463h-988z" />
<glyph unicode="&#xad;" horiz-adv-x="641" d="M119 322v77h401v-77h-401z" />
<glyph unicode="&#xae;" horiz-adv-x="1556" d="M70 666q0 192 94.5 354.5t257 257t354.5 94.5q144 0 275.5 -56t226.5 -150t151 -225t56 -275q0 -115 -36 -223.5t-101.5 -195.5t-152.5 -152.5t-195.5 -101.5t-223.5 -36q-144 0 -275 56t-225 151t-150 226.5t-56 275.5zM123 666q0 -177 87.5 -328t238 -239.5 t327.5 -88.5q133 0 254 52.5t209 140.5t140.5 209t52.5 254q0 177 -88.5 327.5t-239.5 238t-328 87.5q-133 0 -253.5 -52t-208 -139.5t-139.5 -208t-52 -253.5zM373 244l8 35q80 0 99.5 23t19.5 118v526q0 77 -22.5 104t-86.5 27h-16l6 31h336q155 0 229 -63.5t74 -157.5 q0 -89 -59.5 -145.5t-163.5 -67.5l192 -264q57 -76 93 -101.5t104 -29.5l-6 -35h-197l-295 395l-35 10l-37 -10v-219q0 -88 23.5 -114.5t108.5 -26.5l-7 -35h-368zM616 690h43q111 0 171.5 55t60.5 152q0 78 -50 123t-139 45q-42 0 -86 -16v-359z" />
<glyph unicode="&#xaf;" horiz-adv-x="681" d="M41 999v88h600v-88h-600z" />
<glyph unicode="&#xb0;" horiz-adv-x="817" d="M100 1079q0 127 90 217t218 90t217.5 -90t89.5 -217t-89.5 -217t-217.5 -90t-218 90t-90 217zM182 1079q0 -94 66 -159.5t160 -65.5t159.5 65.5t65.5 159.5t-65.5 160t-159.5 66t-160 -66t-66 -160z" />
<glyph unicode="&#xb1;" horiz-adv-x="1366" d="M145 -37v88h1076v-88h-1076zM145 770v88h494v494h88v-494h494v-88h-494v-494h-88v494h-494z" />
<glyph unicode="&#xb2;" horiz-adv-x="618" d="M90 762v49q104 92 169 160t90.5 112t31.5 66t6 51q0 36 -12.5 61.5t-32.5 37t-37.5 16t-34.5 4.5q-104 0 -116 -111h-43q3 91 63.5 147t132.5 56q71 0 130 -49t59 -135q0 -88 -66.5 -172t-222.5 -213h305v-80h-422z" />
<glyph unicode="&#xb3;" horiz-adv-x="618" d="M86 834l37 32q70 -49 137 -49q61 0 102 30.5t41 76.5q0 20 -7.5 42t-24.5 46t-51 39.5t-80 15.5q-10 0 -37 -1t-39 -1v55q215 30 215 135q0 35 -31 59.5t-74 24.5q-37 0 -60.5 -14t-49.5 -51l-41 16q44 121 180 121q77 0 128.5 -44t51.5 -110q0 -85 -88 -137 q119 -57 119 -168q0 -89 -64 -144.5t-165 -55.5q-61 0 -102 17t-97 65z" />
<glyph unicode="&#xb4;" horiz-adv-x="681" d="M254 877l133 409h113l-207 -409h-39z" />
<glyph unicode="&#xb5;" horiz-adv-x="1044" d="M143 -281q0 28 10 59t22 63t22 118t10 211v575h139v-518q0 -76 45 -120t119 -44q104 0 192 119v563h140v-608q0 -60 25.5 -81t99.5 -21v-35l-265 -14v133h-4q-109 -142 -256 -142q-115 0 -184 84q-3 -87 3.5 -147t17 -83.5t19.5 -52t9 -57.5q0 -34 -23 -56.5t-57 -22.5 t-59 22.5t-25 54.5z" />
<glyph unicode="&#xb6;" horiz-adv-x="927" d="M10 975q0 72 24.5 137.5t74 120.5t135 88t196.5 33h480l-9 -35q-85 -8 -109 -35.5t-24 -118.5v-1609h-59v1742h-182v-1742h-60v1071q-128 -2 -221.5 25t-145.5 77t-76 111t-24 135z" />
<glyph unicode="&#xb7;" horiz-adv-x="598" d="M201 612q0 40 29 68.5t69 28.5t68 -28.5t28 -68.5t-28 -69t-68 -29t-69 29t-29 69z" />
<glyph unicode="&#xb8;" horiz-adv-x="681" d="M217 -391q186 3 186 115q0 34 -23 54t-75 32l64 206h34l-34 -127q63 -12 101 -52.5t38 -96.5q0 -81 -76.5 -128.5t-214.5 -41.5v39z" />
<glyph unicode="&#xb9;" horiz-adv-x="618" d="M160 1251v49q18 7 43 19t65.5 38t63.5 52h35v-518q0 -43 1 -53.5t7 -14.5q7 -6 16 -7t47 -1v-53h-245v53q41 0 51 2t16 12q2 8 2 62v364q0 17 -10 17q-3 0 -21 -6q-32 -12 -71 -15z" />
<glyph unicode="&#xba;" horiz-adv-x="598" d="M37 973q0 103 72.5 166t189.5 63t190.5 -63.5t73.5 -165.5q0 -101 -73.5 -164.5t-190.5 -63.5t-189.5 63.5t-72.5 164.5zM147 973q0 -94 40 -146.5t112 -52.5t113 52.5t41 146.5q0 95 -41 148t-113 53t-112 -53t-40 -148z" />
<glyph unicode="&#xbb;" horiz-adv-x="854" d="M43 -43l262 375l-262 375h41l385 -375l-385 -375h-41zM375 -43l262 375l-262 375h41l385 -375l-385 -375h-41z" />
<glyph unicode="&#xbc;" horiz-adv-x="1536" d="M160 1044v48q137 60 172 108h35v-543q0 -36 11 -43.5t60 -7.5v-53h-245v53q50 0 59.5 7t9.5 40v381q0 31 -12 31q-3 0 -11.5 -5.5t-28 -10.5t-50.5 -5zM307 0l852 1202h70l-860 -1202h-62zM891 197v45l348 409h35v-391h170v-63h-170v-197h-98v197h-285zM979 260h197v232z " />
<glyph unicode="&#xbd;" horiz-adv-x="1536" d="M160 1061v39q137 60 172 108h26v-551q-1 -36 11 -43.5t61 -7.5v-45h-237v45q50 0 59.5 7t9.5 40v398q0 30 -12 30q-3 0 -31.5 -9t-58.5 -11zM307 0l852 1202h70l-860 -1202h-62zM1006 0v53q164 137 230.5 228t66.5 155q0 57 -31.5 89t-85.5 32q-105 0 -117 -111h-43 q3 86 60 144.5t137 58.5q78 0 132 -54t54 -132q0 -84 -64 -167t-237 -220v-4h317v-72h-419z" />
<glyph unicode="&#xbe;" horiz-adv-x="1536" d="M88 625l31 26q77 -51 143 -51q62 0 103 34.5t41 80.5q0 57 -38 102t-126 45h-76v45q215 18 215 140q0 36 -30 64t-75 28q-36 0 -60.5 -15t-55.5 -57l-35 14q44 121 180 121q77 0 128.5 -43.5t51.5 -109.5q0 -89 -96 -138v-4q67 -27 97 -67t30 -97q0 -89 -64 -144.5 t-165 -55.5q-61 0 -102 17t-97 65zM307 0l852 1202h70l-860 -1202h-62zM891 197v45l348 409h35v-391h170v-63h-170v-197h-98v197h-285zM979 260h197v232z" />
<glyph unicode="&#xbf;" horiz-adv-x="641" d="M61 -160q0 63 16 112.5t42 80t57 56t62.5 49.5t57.5 51t42 69t16 96v64h39v-228q0 -59 -28.5 -107.5t-69 -82t-81 -65.5t-69 -74t-28.5 -92q0 -72 59 -116t156 -44q60 0 100 16t96 62v-47q-82 -121 -209 -121q-109 0 -183.5 93t-74.5 228zM260 588q0 40 28 69t68 29 t69.5 -29t29.5 -69q0 -39 -29.5 -67.5t-69.5 -28.5t-68 28t-28 68z" />
<glyph unicode="&#xc0;" horiz-adv-x="1216" d="M45 0v35q41 6 68.5 19t47 39t31 52t27.5 74l324 967h121l340 -1010q27 -84 59 -112.5t108 -28.5v-35h-413v35q62 0 87 28.5t5 86.5l-107 325h-378l-80 -235q-14 -40 -20.5 -66t-9 -54.5t5.5 -45t29.5 -27.5t57.5 -12v-35h-303zM387 547h330l-162 497h-4zM451 1651h112 l133 -410h-39z" />
<glyph unicode="&#xc1;" horiz-adv-x="1216" d="M45 0v35q41 6 68.5 19t47 39t31 52t27.5 74l324 967h121l340 -1010q27 -84 59 -112.5t108 -28.5v-35h-413v35q62 0 87 28.5t5 86.5l-107 325h-378l-80 -235q-14 -40 -20.5 -66t-9 -54.5t5.5 -45t29.5 -27.5t57.5 -12v-35h-303zM387 547h330l-162 497h-4zM522 1241 l133 410h113l-207 -410h-39z" />
<glyph unicode="&#xc2;" horiz-adv-x="1216" d="M45 0v35q41 6 68.5 19t47 39t31 52t27.5 74l324 967h121l340 -1010q27 -84 59 -112.5t108 -28.5v-35h-413v35q62 0 87 28.5t5 86.5l-107 325h-378l-80 -235q-14 -40 -20.5 -66t-9 -54.5t5.5 -45t29.5 -27.5t57.5 -12v-35h-303zM375 1249l211 402h51l209 -402h-45 l-197 267l-188 -267h-41zM387 547h330l-162 497h-4z" />
<glyph unicode="&#xc3;" horiz-adv-x="1216" d="M45 0v35q41 6 68.5 19t47 39t31 52t27.5 74l324 967h121l340 -1010q27 -84 59 -112.5t108 -28.5v-35h-413v35q62 0 87 28.5t5 86.5l-107 325h-378l-80 -235q-14 -40 -20.5 -66t-9 -54.5t5.5 -45t29.5 -27.5t57.5 -12v-35h-303zM309 1323q1 69 52 121.5t116 52.5 q66 0 162 -47q108 -47 156 -47q31 0 51.5 24t25.5 64h37q-2 -72 -48.5 -123t-110.5 -51q-79 0 -179 51q-5 2 -21.5 10t-22.5 10.5t-19.5 9t-20.5 8.5t-18 5.5t-19.5 4.5t-17.5 1q-34 0 -53.5 -22t-30.5 -72h-39zM387 547h330l-162 497h-4z" />
<glyph unicode="&#xc4;" horiz-adv-x="1216" d="M45 0v35q41 6 68.5 19t47 39t31 52t27.5 74l324 967h121l340 -1010q27 -84 59 -112.5t108 -28.5v-35h-413v35q62 0 87 28.5t5 86.5l-107 325h-378l-80 -235q-14 -40 -20.5 -66t-9 -54.5t5.5 -45t29.5 -27.5t57.5 -12v-35h-303zM367 1442q0 35 25.5 60.5t60.5 25.5 t60.5 -25.5t25.5 -60.5t-25.5 -60.5t-60.5 -25.5t-60.5 25.5t-25.5 60.5zM387 547h330l-162 497h-4zM682 1442q0 35 25.5 60.5t60.5 25.5t60.5 -25.5t25.5 -60.5t-25.5 -60.5t-60.5 -25.5t-60.5 25.5t-25.5 60.5z" />
<glyph unicode="&#xc5;" horiz-adv-x="1216" d="M45 0v35q41 6 68.5 19t47 39t31 52t27.5 74l324 967h121l340 -1010q27 -84 59 -112.5t108 -28.5v-35h-413v35q62 0 87 28.5t5 86.5l-107 325h-378l-80 -235q-14 -40 -20.5 -66t-9 -54.5t5.5 -45t29.5 -27.5t57.5 -12v-35h-303zM387 547h330l-162 497h-4zM430 1419 q0 75 52.5 127.5t127.5 52.5t128 -52.5t53 -127.5t-53 -127.5t-128 -52.5t-127.5 52.5t-52.5 127.5zM479 1419q0 -54 38.5 -92.5t92.5 -38.5t92.5 38.5t38.5 92.5t-38.5 92.5t-92.5 38.5t-92.5 -38.5t-38.5 -92.5z" />
<glyph unicode="&#xc6;" horiz-adv-x="1579" d="M29 0v35q91 4 136 45.5t128 195.5l489 898h682v-201h-24q-19 79 -60 111t-108 32h-318v-502h265q82 0 110.5 21t42.5 90h35v-287h-35q-12 67 -41 93t-90 26h-287v-387q0 -64 25 -88.5t90 -24.5h113q58 0 92.5 1.5t67 7.5t50.5 15.5t35.5 28.5t29 43t24.5 62h35l-52 -215 h-796v35q49 0 75 13.5t41 54.5t15 120v334h-283l-162 -297q-27 -48 -38.5 -84t-8 -65t28 -48t70.5 -28v-35h-377zM547 614h252v467h-4z" />
<glyph unicode="&#xc7;" horiz-adv-x="1259" d="M125 555q0 184 78 332t216.5 231.5t311.5 83.5q83 0 193 -24.5t135 -24.5q45 0 63 37h33v-350h-35q-42 165 -135 241t-246 76q-138 0 -237.5 -70t-148 -188t-48.5 -270q0 -263 124 -423.5t323 -160.5q277 0 409 258l31 -29q-60 -143 -197.5 -225t-326.5 -76l-23 -84 q63 -12 101 -52.5t38 -96.5q0 -81 -76 -128.5t-214 -41.5v39q186 3 186 115q0 34 -23 54t-75 32l51 163q-99 12 -188 54.5t-161.5 113t-115.5 178t-43 236.5z" />
<glyph unicode="&#xc8;" horiz-adv-x="1044" d="M70 0v35q74 0 103.5 36t29.5 148v733q0 108 -28.5 147.5t-104.5 39.5v35h845v-197h-22q-10 49 -23 76.5t-38.5 41.5t-53.5 17.5t-82 3.5h-338v-502h328q63 0 89 21.5t38 93.5h35v-285h-35q-19 75 -46 94t-118 19h-291v-420q0 -44 18.5 -62t67.5 -18h205q49 0 76.5 1 t58 6.5t47 15.5t36 29t34.5 44.5t33 65.5h35l-54 -219h-845zM365 1651h112l133 -410h-39z" />
<glyph unicode="&#xc9;" horiz-adv-x="1044" d="M70 0v35q74 0 103.5 36t29.5 148v733q0 108 -28.5 147.5t-104.5 39.5v35h845v-197h-22q-10 49 -23 76.5t-38.5 41.5t-53.5 17.5t-82 3.5h-338v-502h328q63 0 89 21.5t38 93.5h35v-285h-35q-19 75 -46 94t-118 19h-291v-420q0 -44 18.5 -62t67.5 -18h205q49 0 76.5 1 t58 6.5t47 15.5t36 29t34.5 44.5t33 65.5h35l-54 -219h-845zM436 1241l133 410h113l-207 -410h-39z" />
<glyph unicode="&#xca;" horiz-adv-x="1044" d="M70 0v35q74 0 103.5 36t29.5 148v733q0 108 -28.5 147.5t-104.5 39.5v35h845v-197h-22q-10 49 -23 76.5t-38.5 41.5t-53.5 17.5t-82 3.5h-338v-502h328q63 0 89 21.5t38 93.5h35v-285h-35q-19 75 -46 94t-118 19h-291v-420q0 -44 18.5 -62t67.5 -18h205q49 0 76.5 1 t58 6.5t47 15.5t36 29t34.5 44.5t33 65.5h35l-54 -219h-845zM289 1249l211 402h51l209 -402h-45l-197 267l-188 -267h-41z" />
<glyph unicode="&#xcb;" horiz-adv-x="1044" d="M70 0v35q74 0 103.5 36t29.5 148v733q0 108 -28.5 147.5t-104.5 39.5v35h845v-197h-22q-10 49 -23 76.5t-38.5 41.5t-53.5 17.5t-82 3.5h-338v-502h328q63 0 89 21.5t38 93.5h35v-285h-35q-19 75 -46 94t-118 19h-291v-420q0 -44 18.5 -62t67.5 -18h205q49 0 76.5 1 t58 6.5t47 15.5t36 29t34.5 44.5t33 65.5h35l-54 -219h-845zM281 1442q0 35 25.5 60.5t60.5 25.5t60.5 -25.5t25.5 -60.5t-25.5 -60.5t-60.5 -25.5t-60.5 25.5t-25.5 60.5zM596 1442q0 35 25.5 60.5t60.5 25.5t60.5 -25.5t25.5 -60.5t-25.5 -60.5t-60.5 -25.5t-60.5 25.5 t-25.5 60.5z" />
<glyph unicode="&#xcc;" horiz-adv-x="532" d="M55 0v35q74 0 103.5 38.5t29.5 147.5v731q0 109 -28.5 148t-104.5 39v35h422v-35q-74 0 -103.5 -41t-29.5 -146v-731q0 -106 29.5 -146t103.5 -40v-35h-422zM109 1651h112l133 -410h-39z" />
<glyph unicode="&#xcd;" horiz-adv-x="532" d="M55 0v35q74 0 103.5 38.5t29.5 147.5v731q0 109 -28.5 148t-104.5 39v35h422v-35q-74 0 -103.5 -41t-29.5 -146v-731q0 -106 29.5 -146t103.5 -40v-35h-422zM180 1241l133 410h113l-207 -410h-39z" />
<glyph unicode="&#xce;" horiz-adv-x="532" d="M33 1249l211 402h51l209 -402h-45l-197 267l-188 -267h-41zM55 0v35q74 0 103.5 38.5t29.5 147.5v731q0 109 -28.5 148t-104.5 39v35h422v-35q-74 0 -103.5 -41t-29.5 -146v-731q0 -106 29.5 -146t103.5 -40v-35h-422z" />
<glyph unicode="&#xcf;" horiz-adv-x="532" d="M25 1442q0 35 25.5 60.5t60.5 25.5t60.5 -25.5t25.5 -60.5t-25.5 -60.5t-60.5 -25.5t-60.5 25.5t-25.5 60.5zM55 0v35q74 0 103.5 38.5t29.5 147.5v731q0 109 -28.5 148t-104.5 39v35h422v-35q-74 0 -103.5 -41t-29.5 -146v-731q0 -106 29.5 -146t103.5 -40v-35h-422z M340 1442q0 35 25.5 60.5t60.5 25.5t60.5 -25.5t25.5 -60.5t-25.5 -60.5t-60.5 -25.5t-60.5 25.5t-25.5 60.5z" />
<glyph unicode="&#xd0;" horiz-adv-x="1366" d="M63 0v35q73 0 103.5 40t30.5 146v326h-134v57h134v348q0 105 -30 146t-104 41v35h555q121 0 226.5 -33.5t182.5 -91.5t132 -135t82 -165.5t27 -181.5q0 -91 -23 -172.5t-74 -154.5t-126 -125.5t-185 -83.5t-244 -31h-553zM352 262q0 -133 31 -180t119 -47h121 q218 0 341 141.5t123 388.5q0 87 -17 167.5t-56.5 155.5t-97.5 130t-145.5 88t-195.5 33h-223v-531h361v-57h-361v-289z" />
<glyph unicode="&#xd1;" horiz-adv-x="1366" d="M39 1139v35h301l733 -914h4v686q0 112 -32 152.5t-111 40.5v35h354v-35q-86 0 -118.5 -40.5t-32.5 -144.5v-954h-35l-828 1020h-4v-823q0 -88 36.5 -125t117.5 -37v-35h-356v35q79 0 112 40t33 161v686q0 105 -37.5 156.5t-136.5 60.5zM383 1323q1 69 52 121.5t116 52.5 q66 0 162 -47q2 -1 15.5 -7t16.5 -7t15 -6t16 -6.5t15 -5.5t16 -5.5t14.5 -4t16 -3t14.5 -1.5t16 -1q31 0 52 24t26 64h37q-1 -72 -48 -123t-112 -51q-78 0 -178 51q-5 2 -21.5 10t-22.5 10.5t-19.5 9t-20.5 8.5t-18 5.5t-19.5 4.5t-17.5 1q-34 0 -53.5 -22t-30.5 -72h-39z " />
<glyph unicode="&#xd2;" horiz-adv-x="1492" d="M121 592q0 171 82 311t226 219.5t321 79.5q171 0 314 -80.5t225.5 -221t82.5 -308.5q0 -128 -49 -243.5t-133 -198t-200 -131t-245 -48.5q-172 0 -315.5 82t-226 225t-82.5 314zM301 590q0 -257 122 -415.5t320 -158.5q107 0 194 48t141.5 128.5t84 180.5t29.5 209 q0 135 -34.5 245t-94 181.5t-139 110t-170.5 38.5q-206 0 -329.5 -155.5t-123.5 -411.5zM588 1651h112l134 -410h-39z" />
<glyph unicode="&#xd3;" horiz-adv-x="1492" d="M121 592q0 171 82 311t226 219.5t321 79.5q171 0 314 -80.5t225.5 -221t82.5 -308.5q0 -128 -49 -243.5t-133 -198t-200 -131t-245 -48.5q-172 0 -315.5 82t-226 225t-82.5 314zM301 590q0 -257 122 -415.5t320 -158.5q107 0 194 48t141.5 128.5t84 180.5t29.5 209 q0 135 -34.5 245t-94 181.5t-139 110t-170.5 38.5q-206 0 -329.5 -155.5t-123.5 -411.5zM659 1241l134 410h112l-207 -410h-39z" />
<glyph unicode="&#xd4;" horiz-adv-x="1492" d="M121 592q0 171 82 311t226 219.5t321 79.5q171 0 314 -80.5t225.5 -221t82.5 -308.5q0 -128 -49 -243.5t-133 -198t-200 -131t-245 -48.5q-172 0 -315.5 82t-226 225t-82.5 314zM301 590q0 -257 122 -415.5t320 -158.5q107 0 194 48t141.5 128.5t84 180.5t29.5 209 q0 135 -34.5 245t-94 181.5t-139 110t-170.5 38.5q-206 0 -329.5 -155.5t-123.5 -411.5zM512 1249l211 402h51l209 -402h-45l-197 267l-188 -267h-41z" />
<glyph unicode="&#xd5;" horiz-adv-x="1492" d="M121 592q0 171 82 311t226 219.5t321 79.5q171 0 314 -80.5t225.5 -221t82.5 -308.5q0 -128 -49 -243.5t-133 -198t-200 -131t-245 -48.5q-172 0 -315.5 82t-226 225t-82.5 314zM301 590q0 -257 122 -415.5t320 -158.5q107 0 194 48t141.5 128.5t84 180.5t29.5 209 q0 135 -34.5 245t-94 181.5t-139 110t-170.5 38.5q-206 0 -329.5 -155.5t-123.5 -411.5zM446 1323q1 69 52 121.5t116 52.5q66 0 162 -47q108 -47 156 -47q31 0 52 24t26 64h37q-1 -72 -48 -123t-112 -51q-78 0 -178 51q-4 2 -19 9t-19.5 9.5t-17.5 8t-19 7.5t-16.5 6t-17 5 t-15 2.5t-16.5 1.5q-34 0 -53.5 -22t-30.5 -72h-39z" />
<glyph unicode="&#xd6;" horiz-adv-x="1492" d="M121 592q0 171 82 311t226 219.5t321 79.5q171 0 314 -80.5t225.5 -221t82.5 -308.5q0 -128 -49 -243.5t-133 -198t-200 -131t-245 -48.5q-172 0 -315.5 82t-226 225t-82.5 314zM301 590q0 -257 122 -415.5t320 -158.5q107 0 194 48t141.5 128.5t84 180.5t29.5 209 q0 135 -34.5 245t-94 181.5t-139 110t-170.5 38.5q-206 0 -329.5 -155.5t-123.5 -411.5zM504 1442q0 35 25.5 60.5t60.5 25.5t60.5 -25.5t25.5 -60.5t-25.5 -60.5t-60.5 -25.5t-60.5 25.5t-25.5 60.5zM819 1442q0 35 25.5 60.5t60.5 25.5t60.5 -25.5t25.5 -60.5t-25.5 -60.5 t-60.5 -25.5t-60.5 25.5t-25.5 60.5z" />
<glyph unicode="&#xd7;" horiz-adv-x="1368" d="M201 231l422 422l-422 422l61 62l422 -422l422 422l61 -62l-422 -422l422 -422l-61 -61l-422 422l-422 -422z" />
<glyph unicode="&#xd8;" horiz-adv-x="1492" d="M121 592q0 171 82 311t226 219.5t321 79.5q107 0 211.5 -36t179.5 -99l119 135l24 -28l-115 -130q96 -86 149.5 -203t53.5 -249q0 -128 -49 -243.5t-133 -198t-200 -131t-245 -48.5q-214 0 -403 142l-164 -185l-24 25l163 184q-92 83 -144 203.5t-52 251.5zM301 580 q0 -207 86 -363l690 780q-55 80 -141 120t-182 40q-207 0 -330 -157t-123 -420zM408 186q115 -170 335 -170q107 0 194 48t141.5 129.5t84 184t29.5 214.5q0 122 -28 219.5t-64 153.5z" />
<glyph unicode="&#xd9;" horiz-adv-x="1366" d="M76 1139v35h424v-35q-75 0 -105 -38t-30 -147v-594q0 -140 77 -224.5t222 -84.5q101 0 187.5 50t147.5 145v706q0 102 -27.5 143t-97.5 44v35h414v-35q-74 0 -103.5 -41t-29.5 -146v-731q0 -110 30.5 -148t102.5 -38v-35h-289v164q-85 -99 -180 -146t-211 -47 q-103 0 -182 34t-125 92.5t-69 128.5t-23 149v577q0 112 -30 149.5t-103 37.5zM524 1651h113l133 -410h-39z" />
<glyph unicode="&#xda;" horiz-adv-x="1366" d="M76 1139v35h424v-35q-75 0 -105 -38t-30 -147v-594q0 -140 77 -224.5t222 -84.5q101 0 187.5 50t147.5 145v706q0 102 -27.5 143t-97.5 44v35h414v-35q-74 0 -103.5 -41t-29.5 -146v-731q0 -110 30.5 -148t102.5 -38v-35h-289v164q-85 -99 -180 -146t-211 -47 q-103 0 -182 34t-125 92.5t-69 128.5t-23 149v577q0 112 -30 149.5t-103 37.5zM596 1241l133 410h113l-207 -410h-39z" />
<glyph unicode="&#xdb;" horiz-adv-x="1366" d="M76 1139v35h424v-35q-75 0 -105 -38t-30 -147v-594q0 -140 77 -224.5t222 -84.5q101 0 187.5 50t147.5 145v706q0 102 -27.5 143t-97.5 44v35h414v-35q-74 0 -103.5 -41t-29.5 -146v-731q0 -110 30.5 -148t102.5 -38v-35h-289v164q-85 -99 -180 -146t-211 -47 q-103 0 -182 34t-125 92.5t-69 128.5t-23 149v577q0 112 -30 149.5t-103 37.5zM449 1249l210 402h52l209 -402h-46l-196 267l-189 -267h-40z" />
<glyph unicode="&#xdc;" horiz-adv-x="1366" d="M76 1139v35h424v-35q-75 0 -105 -38t-30 -147v-594q0 -140 77 -224.5t222 -84.5q101 0 187.5 50t147.5 145v706q0 102 -27.5 143t-97.5 44v35h414v-35q-74 0 -103.5 -41t-29.5 -146v-731q0 -110 30.5 -148t102.5 -38v-35h-289v164q-85 -99 -180 -146t-211 -47 q-103 0 -182 34t-125 92.5t-69 128.5t-23 149v577q0 112 -30 149.5t-103 37.5zM440 1442q0 35 25.5 60.5t60.5 25.5t60.5 -25.5t25.5 -60.5t-25.5 -60.5t-60.5 -25.5t-60.5 25.5t-25.5 60.5zM756 1442q0 35 25.5 60.5t60.5 25.5t60.5 -25.5t25.5 -60.5t-25.5 -60.5 t-60.5 -25.5t-60.5 25.5t-25.5 60.5z" />
<glyph unicode="&#xdd;" horiz-adv-x="1153" d="M37 1139v35h459v-35q-93 0 -114.5 -31.5t17.5 -85.5l232 -356l186 295q46 69 39.5 123.5t-76.5 54.5v35h322v-35q-67 -4 -102 -29.5t-85 -103.5l-264 -416v-369q0 -106 27 -146t102 -40v-35h-428v35q38 0 61 5.5t44 24t30 57t9 99.5v369l-250 389q-62 97 -101 127 t-108 33zM489 1241l134 410h112l-207 -410h-39z" />
<glyph unicode="&#xde;" horiz-adv-x="1024" d="M78 0v35q45 0 72 12.5t44 53.5t17 116v735q0 107 -29 147t-104 40v35h422v-35q-34 0 -56 -7t-40.5 -26t-27.5 -56t-9 -94v-51h139q117 0 207 -29t142.5 -77.5t79 -106.5t26.5 -121q0 -146 -107 -224.5t-307 -78.5q-68 0 -180 13v-60q0 -107 29 -146.5t104 -39.5v-35h-422 zM367 334q62 -21 145 -21q132 0 208.5 67.5t76.5 186.5q0 40 -8.5 79t-30 78t-53 69t-81.5 48.5t-112 18.5h-145v-526z" />
<glyph unicode="&#xdf;" d="M12 0v35q79 0 101 23.5t22 99.5v692q0 220 99.5 329t257.5 109q65 0 121.5 -20.5t95 -53t66 -73.5t40 -82.5t12.5 -79.5q0 -210 -256 -289v-4q146 -23 223.5 -110.5t77.5 -225.5q0 -163 -90 -259.5t-243 -96.5q-33 0 -74 6l-23 145h37q15 -54 41 -83t58 -29q67 0 105 79 t38 216q0 185 -67.5 263.5t-211.5 78.5v35q132 12 183 72.5t51 201.5q0 143 -53.5 204.5t-151.5 61.5q-112 0 -154.5 -81t-42.5 -279v-768q0 -45 22 -61t85 -21v-35h-369z" />
<glyph unicode="&#xe0;" horiz-adv-x="747" d="M61 170q0 58 29.5 99.5t79 64.5t100 38t107 32t86.5 34v54q0 78 -43.5 127t-118.5 49q-64 0 -117 -40.5t-75 -115.5l-37 10q23 101 96.5 162t171.5 61q48 0 92.5 -14.5t83.5 -44t62.5 -83t23.5 -124.5v-311q0 -64 8.5 -88.5t32.5 -24.5q17 0 26.5 15t22.5 55h35 q-5 -68 -42.5 -108t-98.5 -40q-46 0 -75 24.5t-48 78.5q-54 -59 -96 -81t-99 -22q-85 0 -146 57t-61 136zM203 188q0 -55 32.5 -94t77.5 -39q37 0 83.5 25t66.5 67v246q-30 -13 -78 -29t-74 -27t-54.5 -30t-41 -48t-12.5 -71zM215 1286h113l133 -409h-39z" />
<glyph unicode="&#xe1;" horiz-adv-x="747" d="M61 170q0 58 29.5 99.5t79 64.5t100 38t107 32t86.5 34v54q0 78 -43.5 127t-118.5 49q-64 0 -117 -40.5t-75 -115.5l-37 10q23 101 96.5 162t171.5 61q48 0 92.5 -14.5t83.5 -44t62.5 -83t23.5 -124.5v-311q0 -64 8.5 -88.5t32.5 -24.5q17 0 26.5 15t22.5 55h35 q-5 -68 -42.5 -108t-98.5 -40q-46 0 -75 24.5t-48 78.5q-54 -59 -96 -81t-99 -22q-85 0 -146 57t-61 136zM203 188q0 -55 32.5 -94t77.5 -39q37 0 83.5 25t66.5 67v246q-30 -13 -78 -29t-74 -27t-54.5 -30t-41 -48t-12.5 -71zM287 877l133 409h112l-206 -409h-39z" />
<glyph unicode="&#xe2;" horiz-adv-x="747" d="M61 170q0 58 29.5 99.5t79 64.5t100 38t107 32t86.5 34v54q0 78 -43.5 127t-118.5 49q-64 0 -117 -40.5t-75 -115.5l-37 10q23 101 96.5 162t171.5 61q48 0 92.5 -14.5t83.5 -44t62.5 -83t23.5 -124.5v-311q0 -64 8.5 -88.5t32.5 -24.5q17 0 26.5 15t22.5 55h35 q-5 -68 -42.5 -108t-98.5 -40q-46 0 -75 24.5t-48 78.5q-54 -59 -96 -81t-99 -22q-85 0 -146 57t-61 136zM139 885l211 401h51l209 -401h-45l-196 266l-189 -266h-41zM203 188q0 -55 32.5 -94t77.5 -39q37 0 83.5 25t66.5 67v246q-30 -13 -78 -29t-74 -27t-54.5 -30t-41 -48 t-12.5 -71z" />
<glyph unicode="&#xe3;" horiz-adv-x="747" d="M61 170q0 58 29.5 99.5t79 64.5t100 38t107 32t86.5 34v54q0 78 -43.5 127t-118.5 49q-64 0 -117 -40.5t-75 -115.5l-37 10q23 101 96.5 162t171.5 61q48 0 92.5 -14.5t83.5 -44t62.5 -83t23.5 -124.5v-311q0 -64 8.5 -88.5t32.5 -24.5q17 0 26.5 15t22.5 55h35 q-5 -68 -42.5 -108t-98.5 -40q-46 0 -75 24.5t-48 78.5q-54 -59 -96 -81t-99 -22q-85 0 -146 57t-61 136zM74 958q1 69 52 122t116 53q63 0 161 -48q108 -47 156 -47q31 0 52 24t26 64h37q-1 -72 -48 -123t-112 -51q-76 0 -178 52q-5 2 -21.5 10t-22.5 10.5t-19.5 9 t-20.5 8.5t-18 5.5t-19.5 4.5t-17.5 1q-34 0 -53.5 -22.5t-30.5 -72.5h-39zM203 188q0 -55 32.5 -94t77.5 -39q37 0 83.5 25t66.5 67v246q-30 -13 -78 -29t-74 -27t-54.5 -30t-41 -48t-12.5 -71z" />
<glyph unicode="&#xe4;" horiz-adv-x="747" d="M61 170q0 58 29.5 99.5t79 64.5t100 38t107 32t86.5 34v54q0 78 -43.5 127t-118.5 49q-64 0 -117 -40.5t-75 -115.5l-37 10q23 101 96.5 162t171.5 61q48 0 92.5 -14.5t83.5 -44t62.5 -83t23.5 -124.5v-311q0 -64 8.5 -88.5t32.5 -24.5q17 0 26.5 15t22.5 55h35 q-5 -68 -42.5 -108t-98.5 -40q-46 0 -75 24.5t-48 78.5q-54 -59 -96 -81t-99 -22q-85 0 -146 57t-61 136zM131 1077q0 35 25.5 60.5t60.5 25.5t60.5 -25.5t25.5 -60.5t-25.5 -60.5t-60.5 -25.5t-60.5 25.5t-25.5 60.5zM203 188q0 -55 32.5 -94t77.5 -39q37 0 83.5 25 t66.5 67v246q-30 -13 -78 -29t-74 -27t-54.5 -30t-41 -48t-12.5 -71zM446 1077q0 35 25.5 60.5t60.5 25.5t60.5 -25.5t25.5 -60.5t-25.5 -60.5t-60.5 -25.5t-60.5 25.5t-25.5 60.5z" />
<glyph unicode="&#xe5;" horiz-adv-x="747" d="M61 170q0 58 29.5 99.5t79 64.5t100 38t107 32t86.5 34v54q0 78 -43.5 127t-118.5 49q-64 0 -117 -40.5t-75 -115.5l-37 10q23 101 96.5 162t171.5 61q48 0 92.5 -14.5t83.5 -44t62.5 -83t23.5 -124.5v-311q0 -64 8.5 -88.5t32.5 -24.5q17 0 26.5 15t22.5 55h35 q-5 -68 -42.5 -108t-98.5 -40q-46 0 -75 24.5t-48 78.5q-54 -59 -96 -81t-99 -22q-85 0 -146 57t-61 136zM195 1055q0 75 52.5 127.5t127.5 52.5t127.5 -52.5t52.5 -127.5t-52.5 -128t-127.5 -53t-127.5 53t-52.5 128zM203 188q0 -55 32.5 -94t77.5 -39q37 0 83.5 25 t66.5 67v246q-30 -13 -78 -29t-74 -27t-54.5 -30t-41 -48t-12.5 -71zM244 1055q0 -54 38.5 -92.5t92.5 -38.5t92.5 38.5t38.5 92.5t-38.5 92.5t-92.5 38.5t-92.5 -38.5t-38.5 -92.5z" />
<glyph unicode="&#xe6;" horiz-adv-x="1259" d="M68 176q0 38 12 67t45 62q32 32 80.5 49.5t92.5 22.5t99 20.5t95 42.5v39q0 84 -47.5 135.5t-125.5 51.5q-54 0 -114 -35t-90 -115h-35q19 103 99 166t194 63q141 0 225 -112q67 62 124.5 87t131.5 25q58 0 112 -18.5t99.5 -54t72.5 -95.5t27 -135h-524 q-9 -95 6.5 -169.5t45.5 -117.5t71.5 -71.5t78 -38.5t70.5 -10q78 0 140.5 36t126.5 119v-55q-47 -74 -127.5 -116t-175.5 -42q-215 0 -340 158q-110 -158 -258 -158q-92 0 -151.5 55.5t-59.5 143.5zM209 188q0 -55 38 -94t89 -39q21 0 46 8.5t50.5 25t42.5 48t17 72.5v184 q-17 -11 -69 -27.5t-96.5 -32.5t-81 -54t-36.5 -91zM643 477h387q0 108 -59.5 169t-136.5 61q-84 0 -137.5 -65t-53.5 -165z" />
<glyph unicode="&#xe7;" horiz-adv-x="788" d="M72 344q0 167 109.5 284t264.5 117q64 0 130 -20t75 -20q31 0 49 40h35v-256h-35q-23 99 -88 157.5t-155 58.5q-107 0 -175.5 -84.5t-68.5 -217.5q0 -149 80.5 -256.5t191.5 -107.5q70 0 143.5 38.5t127.5 112.5v-53q-118 -160 -332 -160l-25 -88q63 -12 101.5 -53 t38.5 -96q0 -81 -76.5 -128.5t-214.5 -41.5v39q186 3 186 115q0 34 -23 54t-75 32l53 170q-142 15 -229.5 114.5t-87.5 249.5z" />
<glyph unicode="&#xe8;" horiz-adv-x="831" d="M74 354q0 164 105 277.5t259 113.5q129 0 225 -89.5t89 -213.5h-533q-1 -93 19.5 -167t52 -117.5t72.5 -72.5t76.5 -39.5t68.5 -10.5q74 0 125.5 31t130.5 120v-53q-66 -84 -134.5 -120t-164.5 -36q-170 0 -280.5 106.5t-110.5 270.5zM219 477h395q4 111 -55.5 168 t-138.5 57q-89 0 -142 -61t-59 -164zM258 1286h113l133 -409h-39z" />
<glyph unicode="&#xe9;" horiz-adv-x="831" d="M74 354q0 164 105 277.5t259 113.5q129 0 225 -89.5t89 -213.5h-533q-1 -93 19.5 -167t52 -117.5t72.5 -72.5t76.5 -39.5t68.5 -10.5q74 0 125.5 31t130.5 120v-53q-66 -84 -134.5 -120t-164.5 -36q-170 0 -280.5 106.5t-110.5 270.5zM219 477h395q4 111 -55.5 168 t-138.5 57q-89 0 -142 -61t-59 -164zM330 877l133 409h112l-206 -409h-39z" />
<glyph unicode="&#xea;" horiz-adv-x="831" d="M74 354q0 164 105 277.5t259 113.5q129 0 225 -89.5t89 -213.5h-533q-1 -93 19.5 -167t52 -117.5t72.5 -72.5t76.5 -39.5t68.5 -10.5q74 0 125.5 31t130.5 120v-53q-66 -84 -134.5 -120t-164.5 -36q-170 0 -280.5 106.5t-110.5 270.5zM182 885l211 401h51l209 -401h-45 l-196 266l-189 -266h-41zM219 477h395q4 111 -55.5 168t-138.5 57q-89 0 -142 -61t-59 -164z" />
<glyph unicode="&#xeb;" horiz-adv-x="831" d="M74 354q0 164 105 277.5t259 113.5q129 0 225 -89.5t89 -213.5h-533q-1 -93 19.5 -167t52 -117.5t72.5 -72.5t76.5 -39.5t68.5 -10.5q74 0 125.5 31t130.5 120v-53q-66 -84 -134.5 -120t-164.5 -36q-170 0 -280.5 106.5t-110.5 270.5zM174 1077q0 35 25.5 60.5t60.5 25.5 t60.5 -25.5t25.5 -60.5t-25.5 -60.5t-60.5 -25.5t-60.5 25.5t-25.5 60.5zM219 477h395q4 111 -55.5 168t-138.5 57q-89 0 -142 -61t-59 -164zM489 1077q0 35 25.5 60.5t60.5 25.5t61 -25.5t26 -60.5t-26 -60.5t-61 -25.5t-60.5 25.5t-25.5 60.5z" />
<glyph unicode="&#xec;" horiz-adv-x="468" d="M29 0v35q85 0 111 18.5t26 81.5v445q0 72 -26.5 90t-110.5 18v35l241 22h35v-610q0 -57 23.5 -78.5t97.5 -21.5v-35h-397zM76 1286h112l134 -409h-39z" />
<glyph unicode="&#xed;" horiz-adv-x="468" d="M29 0v35q85 0 111 18.5t26 81.5v445q0 72 -26.5 90t-110.5 18v35l241 22h35v-610q0 -57 23.5 -78.5t97.5 -21.5v-35h-397zM147 877l134 409h112l-207 -409h-39z" />
<glyph unicode="&#xee;" horiz-adv-x="468" d="M0 885l211 401h51l209 -401h-45l-197 266l-188 -266h-41zM29 0v35q85 0 111 18.5t26 81.5v445q0 72 -26.5 90t-110.5 18v35l241 22h35v-610q0 -57 23.5 -78.5t97.5 -21.5v-35h-397z" />
<glyph unicode="&#xef;" horiz-adv-x="468" d="M-8 1077q0 35 25.5 60.5t60.5 25.5t60.5 -25.5t25.5 -60.5t-25.5 -60.5t-60.5 -25.5t-60.5 25.5t-25.5 60.5zM29 0v35q85 0 111 18.5t26 81.5v445q0 72 -26.5 90t-110.5 18v35l241 22h35v-610q0 -57 23.5 -78.5t97.5 -21.5v-35h-397zM307 1077q0 35 25.5 60.5t60.5 25.5 t60.5 -25.5t25.5 -60.5t-25.5 -60.5t-60.5 -25.5t-60.5 25.5t-25.5 60.5z" />
<glyph unicode="&#xf0;" horiz-adv-x="948" d="M78 360q0 162 110.5 273.5t270.5 111.5q69 0 122 -18t107 -59q-16 80 -30 136t-45.5 134t-73.5 139l-222 -145l-22 33l221 143q-63 84 -162 141l56 37q102 -54 180 -129l192 127l23 -33l-187 -123q65 -70 114.5 -157t76 -163t43 -156t21 -129.5t4.5 -88.5 q0 -215 -110 -336t-296 -121q-169 0 -281 109t-112 274zM227 360q0 -157 66 -249.5t180 -92.5q116 0 181 94.5t65 262.5q0 152 -66 241t-180 89q-115 0 -180.5 -92.5t-65.5 -252.5z" />
<glyph unicode="&#xf1;" d="M20 0v35q41 0 60.5 3t35.5 17.5t20.5 41.5t4.5 77v408q0 66 -23.5 86t-97.5 20v35l226 22h35v-145q127 145 262 145q99 0 172 -68.5t73 -191.5v-327q0 -72 24 -97.5t99 -25.5v-35h-387v35q73 0 99 19t26 71v379q0 82 -48.5 124t-113.5 42q-53 0 -102 -34.5t-104 -107.5 v-354q0 -86 21.5 -112.5t100.5 -26.5v-35h-383zM170 958q1 69 52 122t116 53q64 0 162 -48q2 -1 15.5 -7t16.5 -7t15 -6t16 -6.5t15 -5.5t16 -5.5t14.5 -4t16 -3t14.5 -1.5t16 -1q31 0 52 24t26 64h37q-1 -72 -48 -123t-112 -51q-76 0 -178 52q-5 2 -21.5 10t-22.5 10.5 t-19.5 9t-20.5 8.5t-18 5.5t-19.5 4.5t-17.5 1q-34 0 -53.5 -22.5t-30.5 -72.5h-39z" />
<glyph unicode="&#xf2;" d="M72 360q0 166 113.5 275.5t283.5 109.5t283.5 -109.5t113.5 -275.5q0 -164 -113.5 -273.5t-283.5 -109.5t-283.5 109.5t-113.5 273.5zM223 360q0 -149 63 -245.5t183 -96.5q82 0 139.5 50t82 125t24.5 167q0 94 -25.5 170.5t-82.5 125.5t-138 49q-115 0 -180.5 -93.5 t-65.5 -251.5zM311 1286h113l133 -409h-39z" />
<glyph unicode="&#xf3;" d="M72 360q0 166 113.5 275.5t283.5 109.5t283.5 -109.5t113.5 -275.5q0 -164 -113.5 -273.5t-283.5 -109.5t-283.5 109.5t-113.5 273.5zM223 360q0 -149 63 -245.5t183 -96.5q82 0 139.5 50t82 125t24.5 167q0 94 -25.5 170.5t-82.5 125.5t-138 49q-115 0 -180.5 -93.5 t-65.5 -251.5zM383 877l133 409h113l-207 -409h-39z" />
<glyph unicode="&#xf4;" d="M72 360q0 166 113.5 275.5t283.5 109.5t283.5 -109.5t113.5 -275.5q0 -164 -113.5 -273.5t-283.5 -109.5t-283.5 109.5t-113.5 273.5zM223 360q0 -149 63 -245.5t183 -96.5q82 0 139.5 50t82 125t24.5 167q0 94 -25.5 170.5t-82.5 125.5t-138 49q-115 0 -180.5 -93.5 t-65.5 -251.5zM236 885l210 401h52l209 -401h-45l-197 266l-189 -266h-40z" />
<glyph unicode="&#xf5;" d="M72 360q0 166 113.5 275.5t283.5 109.5t283.5 -109.5t113.5 -275.5q0 -164 -113.5 -273.5t-283.5 -109.5t-283.5 109.5t-113.5 273.5zM170 958q1 69 52 122t116 53q64 0 162 -48q2 -1 15.5 -7t16.5 -7t15 -6t16 -6.5t15 -5.5t16 -5.5t14.5 -4t16 -3t14.5 -1.5t16 -1 q31 0 52 24t26 64h37q-1 -72 -48 -123t-112 -51q-76 0 -178 52q-5 2 -21.5 10t-22.5 10.5t-19.5 9t-20.5 8.5t-18 5.5t-19.5 4.5t-17.5 1q-34 0 -53.5 -22.5t-30.5 -72.5h-39zM223 360q0 -149 63 -245.5t183 -96.5q82 0 139.5 50t82 125t24.5 167q0 94 -25.5 170.5 t-82.5 125.5t-138 49q-115 0 -180.5 -93.5t-65.5 -251.5z" />
<glyph unicode="&#xf6;" d="M72 360q0 166 113.5 275.5t283.5 109.5t283.5 -109.5t113.5 -275.5q0 -164 -113.5 -273.5t-283.5 -109.5t-283.5 109.5t-113.5 273.5zM223 360q0 -149 63 -245.5t183 -96.5q82 0 139.5 50t82 125t24.5 167q0 94 -25.5 170.5t-82.5 125.5t-138 49q-115 0 -180.5 -93.5 t-65.5 -251.5zM227 1077q0 35 25.5 60.5t60.5 25.5t60.5 -25.5t25.5 -60.5t-25.5 -60.5t-60.5 -25.5t-60.5 25.5t-25.5 60.5zM543 1077q0 35 25.5 60.5t60.5 25.5t60.5 -25.5t25.5 -60.5t-25.5 -60.5t-60.5 -25.5t-60.5 25.5t-25.5 60.5z" />
<glyph unicode="&#xf7;" horiz-adv-x="1368" d="M145 610v88h1076v-88h-1076zM621 250q0 26 17.5 43.5t43.5 17.5t43.5 -17.5t17.5 -43.5t-17.5 -44t-43.5 -18t-43.5 18t-17.5 44zM621 1059q0 26 17.5 43.5t43.5 17.5t43.5 -17.5t17.5 -43.5t-17.5 -44t-43.5 -18t-43.5 18t-17.5 44z" />
<glyph unicode="&#xf8;" d="M72 360q0 166 113.5 275.5t283.5 109.5q127 0 246 -73l96 106l25 -22l-99 -107q129 -106 129 -289q0 -164 -113.5 -273.5t-283.5 -109.5q-141 0 -254 84l-113 -127l-26 21l112 127q-55 52 -85.5 124.5t-30.5 153.5zM223 360q0 -119 37 -198l393 438q-65 105 -184 105 q-115 0 -180.5 -93.5t-65.5 -251.5zM276 129q69 -111 193 -111q82 0 139.5 50t82 125t24.5 167q0 139 -45 211z" />
<glyph unicode="&#xf9;" d="M25 688v35l233 22h35v-518q0 -76 45 -120t119 -44q104 0 192 119v391q0 75 -23.5 94t-117.5 21v35l246 22h34v-608q0 -60 25.5 -81t99.5 -21v-35l-264 -14v133h-4q-109 -142 -254 -142q-105 0 -171 70.5t-66 173.5v371q0 54 -26.5 75t-102.5 21zM311 1286h113l133 -409 h-39z" />
<glyph unicode="&#xfa;" d="M25 688v35l233 22h35v-518q0 -76 45 -120t119 -44q104 0 192 119v391q0 75 -23.5 94t-117.5 21v35l246 22h34v-608q0 -60 25.5 -81t99.5 -21v-35l-264 -14v133h-4q-109 -142 -254 -142q-105 0 -171 70.5t-66 173.5v371q0 54 -26.5 75t-102.5 21zM383 877l133 409h113 l-207 -409h-39z" />
<glyph unicode="&#xfb;" d="M25 688v35l233 22h35v-518q0 -76 45 -120t119 -44q104 0 192 119v391q0 75 -23.5 94t-117.5 21v35l246 22h34v-608q0 -60 25.5 -81t99.5 -21v-35l-264 -14v133h-4q-109 -142 -254 -142q-105 0 -171 70.5t-66 173.5v371q0 54 -26.5 75t-102.5 21zM236 885l210 401h52 l209 -401h-45l-197 266l-189 -266h-40z" />
<glyph unicode="&#xfc;" d="M25 688v35l233 22h35v-518q0 -76 45 -120t119 -44q104 0 192 119v391q0 75 -23.5 94t-117.5 21v35l246 22h34v-608q0 -60 25.5 -81t99.5 -21v-35l-264 -14v133h-4q-109 -142 -254 -142q-105 0 -171 70.5t-66 173.5v371q0 54 -26.5 75t-102.5 21zM227 1077q0 35 25.5 60.5 t60.5 25.5t60.5 -25.5t25.5 -60.5t-25.5 -60.5t-60.5 -25.5t-60.5 25.5t-25.5 60.5zM543 1077q0 35 25.5 60.5t60.5 25.5t60.5 -25.5t25.5 -60.5t-25.5 -60.5t-60.5 -25.5t-60.5 25.5t-25.5 60.5z" />
<glyph unicode="&#xfd;" horiz-adv-x="854" d="M33 688v35h348v-35q-42 -6 -56 -35t5 -75l174 -410l127 383q24 64 12 99t-70 38v35h256v-35q-58 0 -96 -39.5t-69 -130.5l-289 -854q-42 -124 -107.5 -194t-132.5 -70q-40 0 -90 31l47 125q41 -17 70 -17q66 0 108 41t76 137l94 263l-260 600q-28 64 -56.5 85.5 t-90.5 22.5zM340 877l133 409h113l-207 -409h-39z" />
<glyph unicode="&#xfe;" d="M16 1227v35l234 24h35v-663q69 67 126 94.5t126 27.5q141 0 234 -107.5t93 -270.5q0 -167 -102.5 -278.5t-257.5 -111.5q-59 0 -108.5 19.5t-110.5 66.5v-477q0 -69 23.5 -95t97.5 -26v-34h-388v34q74 0 100.5 20.5t26.5 80.5v1536q0 85 -20.5 105t-108.5 20zM285 115 q40 -41 94 -65.5t106 -24.5q97 0 162.5 91t65.5 226q0 146 -65.5 241t-166.5 95q-55 0 -100 -25t-96 -84v-454z" />
<glyph unicode="&#xff;" horiz-adv-x="854" d="M33 688v35h348v-35q-42 -6 -56 -35t5 -75l174 -410l127 383q24 64 12 99t-70 38v35h256v-35q-58 0 -96 -39.5t-69 -130.5l-289 -854q-42 -124 -107.5 -194t-132.5 -70q-40 0 -90 31l47 125q41 -17 70 -17q66 0 108 41t76 137l94 263l-260 600q-28 64 -56.5 85.5 t-90.5 22.5zM184 1077q0 35 25.5 60.5t60.5 25.5t60.5 -25.5t25.5 -60.5t-25.5 -60.5t-60.5 -25.5t-60.5 25.5t-25.5 60.5zM500 1077q0 35 25.5 60.5t60.5 25.5t60.5 -25.5t25.5 -60.5t-25.5 -60.5t-60.5 -25.5t-60.5 25.5t-25.5 60.5z" />
<glyph unicode="&#x152;" horiz-adv-x="1878" d="M127 594q0 66 17.5 133.5t51.5 134t90 124.5t126 102.5t166 70t206 25.5q46 0 164 -4q88 -6 152 -6h657v-195h-28q-7 78 -54 107.5t-141 29.5h-307v-498h323q52 0 77 24t44 89h33v-282h-33q-12 63 -41 87.5t-94 24.5h-309v-391q0 -64 25.5 -88.5t95.5 -24.5h129 q137 0 204 34.5t95 131.5h32l-51 -223h-799q-53 0 -118.5 -2t-81.5 -2q-172 0 -317 78.5t-229.5 216t-84.5 303.5zM307 588q0 -118 31 -217t91 -173t156 -115.5t220 -41.5q86 0 149.5 12.5t83.5 32.5q33 33 33 107v776q0 40 -7.5 69t-26 47.5t-38.5 29.5t-55 16t-64.5 6.5 t-78.5 1.5q-224 0 -359 -149.5t-135 -401.5z" />
<glyph unicode="&#x153;" horiz-adv-x="1472" d="M76 360q0 161 113 273t276 112q99 0 183.5 -39t144.5 -112q112 151 290 151q130 0 226 -89.5t92 -213.5h-535q-4 -94 17 -170.5t55 -121t76.5 -75t78 -41.5t64.5 -11q126 0 254 161v-53q-75 -89 -138.5 -121.5t-162.5 -32.5q-102 0 -176 35.5t-141 112.5 q-70 -79 -147 -113.5t-171 -34.5q-170 0 -284.5 109.5t-114.5 273.5zM227 360q0 -63 13.5 -121t41.5 -109t77 -81.5t114 -30.5q107 0 174.5 87.5t67.5 254.5q0 70 -13.5 130.5t-41.5 110t-76 78t-111 28.5q-64 0 -113.5 -31t-77.5 -83t-41.5 -111t-13.5 -122zM868 477h394 q-8 111 -57.5 169.5t-137.5 58.5t-139.5 -60.5t-59.5 -167.5z" />
<glyph unicode="&#x178;" horiz-adv-x="1153" d="M37 1139v35h459v-35q-93 0 -114.5 -31.5t17.5 -85.5l232 -356l186 295q46 69 39.5 123.5t-76.5 54.5v35h322v-35q-67 -4 -102 -29.5t-85 -103.5l-264 -416v-369q0 -106 27 -146t102 -40v-35h-428v35q38 0 61 5.5t44 24t30 57t9 99.5v369l-250 389q-62 97 -101 127 t-108 33zM334 1442q0 35 25.5 60.5t60.5 25.5t60.5 -25.5t25.5 -60.5t-25.5 -60.5t-60.5 -25.5t-60.5 25.5t-25.5 60.5zM649 1442q0 35 25.5 60.5t60.5 25.5t60.5 -25.5t25.5 -60.5t-25.5 -60.5t-60.5 -25.5t-60.5 25.5t-25.5 60.5z" />
<glyph unicode="&#x2c6;" horiz-adv-x="681" d="M106 885l211 401h52l209 -401h-46l-196 266l-189 -266h-41z" />
<glyph unicode="&#x2dc;" horiz-adv-x="681" d="M41 958q1 69 52 122t116 53q64 0 162 -48q2 -1 15.5 -7t16.5 -7t15 -6t16 -6.5t15 -5.5t16 -5.5t14.5 -4t16 -3t14.5 -1.5t16 -1q31 0 52 24t26 64h37q-1 -72 -48 -123t-112 -51q-76 0 -178 52q-5 2 -21.5 10t-22.5 10.5t-19.5 9t-20.5 8.5t-18 5.5t-19.5 4.5t-17.5 1 q-34 0 -53.5 -22.5t-30.5 -72.5h-39z" />
<glyph unicode="&#x2000;" horiz-adv-x="825" />
<glyph unicode="&#x2001;" horiz-adv-x="1651" />
<glyph unicode="&#x2002;" horiz-adv-x="825" />
<glyph unicode="&#x2003;" horiz-adv-x="1651" />
<glyph unicode="&#x2004;" horiz-adv-x="550" />
<glyph unicode="&#x2005;" horiz-adv-x="412" />
<glyph unicode="&#x2006;" horiz-adv-x="275" />
<glyph unicode="&#x2007;" horiz-adv-x="275" />
<glyph unicode="&#x2008;" horiz-adv-x="206" />
<glyph unicode="&#x2009;" horiz-adv-x="330" />
<glyph unicode="&#x200a;" horiz-adv-x="91" />
<glyph unicode="&#x2010;" horiz-adv-x="641" d="M119 322v77h401v-77h-401z" />
<glyph unicode="&#x2011;" horiz-adv-x="641" d="M119 322v77h401v-77h-401z" />
<glyph unicode="&#x2012;" horiz-adv-x="641" d="M119 322v77h401v-77h-401z" />
<glyph unicode="&#x2013;" horiz-adv-x="1024" d="M-12 362v46h1048v-46h-1048z" />
<glyph unicode="&#x2014;" horiz-adv-x="2048" d="M-12 362v46h2072v-46h-2072z" />
<glyph unicode="&#x2018;" horiz-adv-x="598" d="M203 973q0 113 60.5 197.5t162.5 115.5v-35q-68 -40 -97.5 -92.5t-29.5 -124.5q0 -25 18.5 -36t40 -13.5t40 -21.5t18.5 -58q0 -38 -25 -62t-63 -24q-57 0 -91 42.5t-34 111.5z" />
<glyph unicode="&#x2019;" horiz-adv-x="598" d="M172 819v35q127 73 127 217q0 25 -18.5 36t-40 13.5t-40 21.5t-18.5 58q0 38 25 62t63 24q57 0 91 -42t34 -111q0 -113 -60.5 -198t-162.5 -116z" />
<glyph unicode="&#x201a;" horiz-adv-x="598" d="M180 47q0 39 29.5 67.5t69.5 28.5q67 0 109 -54.5t42 -141.5q0 -106 -70 -189.5t-180 -109.5v35q74 34 109 89t35 140q0 24 -6.5 30.5t-30.5 6.5q-44 0 -75.5 28.5t-31.5 69.5z" />
<glyph unicode="&#x201c;" horiz-adv-x="641" d="M18 987q0 106 70 189.5t180 109.5v-35q-79 -40 -111 -91t-32 -138q0 -24 6.5 -30.5t30.5 -6.5q44 0 75 -28.5t31 -69.5q0 -40 -29 -68t-69 -28q-67 0 -109.5 55t-42.5 141zM344 987q0 106 70 189.5t180 109.5v-35q-77 -38 -110 -90.5t-33 -138.5q0 -24 6.5 -30.5 t29.5 -6.5q44 0 75.5 -28.5t31.5 -69.5q0 -40 -29 -68t-69 -28q-67 0 -109.5 55t-42.5 141z" />
<glyph unicode="&#x201d;" horiz-adv-x="641" d="M47 791v34q79 42 111 93t32 137q0 25 -6 31t-30 6q-44 0 -75.5 28.5t-31.5 69.5q0 40 29 68t69 28q67 0 109.5 -55t42.5 -141q0 -106 -70 -189.5t-180 -109.5zM373 791v34q77 38 110 91t33 139q0 24 -6.5 30.5t-30.5 6.5q-44 0 -75 28.5t-31 69.5q0 40 29 68t69 28 q67 0 109.5 -55t42.5 -141q0 -106 -70 -189.5t-180 -109.5z" />
<glyph unicode="&#x201e;" horiz-adv-x="641" d="M37 47q0 40 29 68t69 28q67 0 109.5 -55t42.5 -141q0 -106 -70 -189.5t-180 -109.5v35q80 41 111.5 92t31.5 137q0 24 -6.5 30.5t-30.5 6.5q-44 0 -75 28.5t-31 69.5zM350 47q0 39 29.5 67.5t69.5 28.5q67 0 109 -54.5t42 -141.5q0 -106 -70 -189.5t-180 -109.5v35 q78 40 111 91.5t33 137.5q0 24 -6.5 30.5t-30.5 6.5q-44 0 -75.5 28.5t-31.5 69.5z" />
<glyph unicode="&#x2022;" horiz-adv-x="716" d="M129 676q0 95 67 162t162 67t162.5 -67t67.5 -162t-67.5 -162.5t-162.5 -67.5t-162 67.5t-67 162.5z" />
<glyph unicode="&#x2026;" horiz-adv-x="2048" d="M244 47q0 40 28 68t68 28t69 -28t29 -68t-29 -69t-69 -29t-68 29t-28 69zM926 47q0 40 29 68t69 28t68 -28t28 -68t-28 -69t-68 -29t-69 29t-29 69zM1608 47q0 40 28 68t68 28t69 -28t29 -68t-29 -69t-69 -29t-68 29t-28 69z" />
<glyph unicode="&#x202f;" horiz-adv-x="330" />
<glyph unicode="&#x2039;" horiz-adv-x="532" d="M57 332l385 375h43l-264 -375l264 -375h-43z" />
<glyph unicode="&#x203a;" horiz-adv-x="532" d="M47 -43l264 375l-264 375h43l385 -375l-385 -375h-43z" />
<glyph unicode="&#x205f;" horiz-adv-x="412" />
<glyph unicode="&#x20ac;" d="M33 487l10 45h98v23q0 62 2 82h-110l10 45h102q24 250 129 385q102 135 269 135q88 0 166 -35q28 -14 43 -14q45 0 63 37h33v-328h-35q-43 172 -108 234q-64 61 -154 61q-111 0 -178 -123q-67 -122 -76 -352h430l-8 -45h-422v-12q0 -70 2 -93h395l-10 -45h-383 q18 -214 86 -329q67 -113 180 -113q168 0 279 221l31 -28q-120 -267 -349 -267q-152 0 -260 138q-107 137 -125 378h-110z" />
<glyph unicode="&#x2122;" horiz-adv-x="2007" d="M113 1174v184h684v-184h-35q-10 84 -39.5 109.5t-114.5 25.5h-92v-555q0 -104 19.5 -137t80.5 -33h19v-35h-361v35h31q54 0 71 30.5t17 120.5v574h-114q-66 0 -96.5 -33.5t-35.5 -101.5h-34zM858 549v35q76 0 97.5 19t21.5 95v514q0 63 -23.5 85t-95.5 28v33h242 l293 -627l288 627h232v-33h-31q-51 -3 -69.5 -23t-18.5 -73v-488q0 -56 3 -83.5t17 -45t34.5 -22t62.5 -6.5v-35h-346v35q75 0 95.5 28t20.5 129v496h-4l-307 -688h-16l-318 676h-4v-535q0 -71 18.5 -88.5t96.5 -17.5v-35h-289z" />
<glyph unicode="&#xe000;" horiz-adv-x="727" d="M0 0v727h727v-727h-727z" />
</font>
</defs>
</svg>
